<?xml version="1.0" encoding="UTF-8" standalone="no"?>
<!-- Created with Inkscape (http://www.inkscape.org/) -->

<svg
   xmlns:dc="http://purl.org/dc/elements/1.1/"
   xmlns:cc="http://creativecommons.org/ns#"
   xmlns:rdf="http://www.w3.org/1999/02/22-rdf-syntax-ns#"
   xmlns:svg="http://www.w3.org/2000/svg"
   xmlns="http://www.w3.org/2000/svg"
   xmlns:sodipodi="http://sodipodi.sourceforge.net/DTD/sodipodi-0.dtd"
   xmlns:inkscape="http://www.inkscape.org/namespaces/inkscape"
   width="210mm"
   height="297mm"
   viewBox="0 0 744.09448819 1052.3622047"
   id="svg2"
   version="1.1"
   inkscape:version="0.91 r13725"
   sodipodi:docname="drawing.svg">
  <defs
     id="defs4" />
  <sodipodi:namedview
     id="base"
     pagecolor="#ffffff"
     bordercolor="#666666"
     borderopacity="1.0"
     inkscape:pageopacity="0.0"
     inkscape:pageshadow="2"
     inkscape:zoom="0.98994949"
     inkscape:cx="325.06772"
     inkscape:cy="693.91543"
     inkscape:document-units="px"
     inkscape:current-layer="layer1"
     showgrid="false"
     inkscape:window-width="1366"
     inkscape:window-height="705"
     inkscape:window-x="0"
     inkscape:window-y="30"
     inkscape:window-maximized="1" />
  <metadata
     id="metadata7">
    <rdf:RDF>
      <cc:Work
         rdf:about="">
        <dc:format>image/svg+xml</dc:format>
        <dc:type
           rdf:resource="http://purl.org/dc/dcmitype/StillImage" />
        <dc:title></dc:title>
      </cc:Work>
    </rdf:RDF>
  </metadata>
  <g
     inkscape:label="Capa 1"
     inkscape:groupmode="layer"
     id="layer1">
    <path
       style="fill:#babdb6"
       d="m 223.48236,311.6463 c -3.71773,-0.19301 -9.82209,-1.13745 -13.89152,-2.14919 -2.8922,-0.71907 -6.8907,-2.07487 -6.69967,-2.27173 0.0862,-0.0888 2.33088,-1.04178 4.98839,-2.11786 6.09326,-2.46735 9.27766,-3.89452 18.32072,-8.21089 21.6368,-10.32751 34.5404,-15.23336 44.43545,-16.89401 2.54651,-0.42736 7.71877,-0.50608 8.34672,-0.12707 0.93727,0.5658 1.02158,0.79156 0.84205,2.25443 -1.47488,12.01615 -13.96622,22.73071 -31.78031,27.25985 -7.80659,1.98478 -15.74583,2.71415 -24.56183,2.25642 z m 8.81039,-2.8161 c -0.19249,-0.0542 -0.55488,-0.0563 -0.8053,-0.004 -0.25045,0.0518 -0.0928,0.0963 0.34996,0.0986 0.44293,0.002 0.64783,-0.0401 0.45534,-0.0943 z m 5.18181,-0.29133 c 14.2981,-1.29611 25.52848,-5.76508 32.1298,-12.78558 3.42074,-3.63796 5.3325,-7.50011 5.93003,-11.97991 0.1361,-1.02046 0.13059,-1.0337 -0.55945,-1.3442 -0.76858,-0.34584 -3.6104,-0.78118 -4.88023,-0.7476 l -0.81057,0.0214 0.87759,0.29688 c 1.35591,0.45867 1.48734,0.649 1.32689,1.92161 -0.33648,2.66873 -1.77111,6.24486 -3.54363,8.83319 -2.21047,3.22788 -6.56322,6.973 -10.71302,9.21752 -5.9084,3.19569 -14.22901,5.63177 -22.37465,6.55076 -2.40546,0.27137 -0.33952,0.28394 2.61724,0.0159 z m -61.70655,-13.30196 0,-9.62272 4.84962,0.0285 c 6.15582,0.0361 5.61934,-0.44606 5.61934,5.05177 0,2.19972 -0.0999,4.42696 -0.22209,4.94941 -0.3566,1.52509 -0.62532,1.66626 -3.55084,1.86547 -1.41287,0.0961 -2.5915,0.17947 -2.61918,0.18508 -0.0277,0.005 -0.0502,1.62006 -0.0502,3.58768 l 0,3.5775 -2.01326,0 -2.01327,0 0,-9.62275 z m 7.04642,-3.38634 0,-2.16818 -1.50994,0 -1.50996,0 0,2.16818 0,2.16818 1.50996,0 1.50994,0 0,-2.16818 z m 5.03316,2.82277 0,-9.53586 0.45299,-0.11206 c 2.45828,-0.60838 4.00778,-0.98024 4.08466,-0.98024 0.0512,0 0.0928,3.51901 0.0928,7.82005 0,7.34584 0.0214,7.81324 0.35233,7.70787 0.60937,-0.19399 3.70072,-0.78432 4.10723,-0.78432 0.35699,0 0.38382,0.14427 0.33008,1.77565 l -0.0584,1.77565 -1.81194,0.49912 c -2.28793,0.6302 -6.00328,1.37001 -6.8803,1.37001 l -0.66944,0 0,-9.53583 z m 10.86382,6.38202 c -0.24773,-0.32134 -0.29418,-1.8185 -0.29418,-9.48021 l 0,-9.09862 2.21457,-0.72819 c 1.21804,-0.40051 2.28256,-0.73054 2.36559,-0.73343 0.083,-0.002 0.151,3.45269 0.151,7.67902 0,4.22633 0.076,7.73483 0.16893,7.79665 0.25387,0.16898 2.24644,-0.5684 2.25065,-0.83289 0.002,-0.1263 0.0246,-3.68987 0.0505,-7.91905 l 0.0467,-7.68944 2.37118,-0.95918 c 1.30413,-0.52756 2.40789,-0.91964 2.45279,-0.87131 0.0449,0.0485 0.11022,4.0866 0.14541,8.97387 0.0763,10.62954 0.17553,10.10814 -2.11795,11.12954 -1.92703,0.85821 -7.67919,2.83643 -8.69769,2.99122 -0.62748,0.0953 -0.88029,0.0364 -1.1073,-0.25798 z m 13.99904,-4.61651 c -0.0549,-0.059 -0.0998,-4.42231 -0.0998,-9.69613 l 0,-9.58875 2.56692,-1.10839 c 1.41179,-0.60962 2.62517,-1.10803 2.69637,-1.1076 0.0712,4.2e-4 0.74149,1.68387 1.48955,3.74091 0.74804,2.05708 1.42337,3.8179 1.50071,3.91295 0.0773,0.0952 0.75715,-2.19778 1.51065,-5.09521 0.75352,-2.89743 1.39266,-5.29916 1.42036,-5.3372 0.0655,-0.0901 5.28986,-2.42427 5.42585,-2.42427 0.0571,0 0.0802,4.41164 0.0514,9.80364 l -0.0523,9.80362 -2.11393,1.02052 c -1.16266,0.56128 -2.22719,1.02805 -2.36557,1.03726 -0.19129,0.0129 -0.25168,-0.79823 -0.25168,-3.38006 0,-1.86826 -0.0512,-3.34162 -0.1139,-3.27415 -0.0627,0.0675 -0.58357,1.81556 -1.15762,3.88464 l -1.04373,3.762 -1.16781,0.62863 c -0.67402,0.36281 -1.23789,0.54617 -1.3335,0.43363 -0.0911,-0.10716 -0.60747,-1.46045 -1.14742,-3.00713 l -0.98178,-2.81213 -0.11194,3.51809 c -0.0616,1.93495 -0.19746,3.60698 -0.30199,3.71563 -0.2601,0.27034 -4.2946,1.70331 -4.41886,1.5695 z m 18.82499,-18.10117 0,-9.82698 1.7616,-0.77477 c 0.96886,-0.42613 3.54742,-1.61414 5.73008,-2.64003 2.18267,-1.02589 4.14997,-1.86526 4.37177,-1.86526 0.72729,0 0.8201,0.65899 0.8201,5.82319 l 0,4.98442 -0.52983,0.67812 c -0.2914,0.37297 -0.79071,0.79512 -1.10955,0.9381 l -0.57971,0.26001 1.68664,2.81863 c 0.92765,1.55025 1.65614,2.87777 1.61886,2.95006 -0.0374,0.0724 -1.30611,0.73911 -2.81964,1.4818 -2.15498,1.05747 -2.78889,1.2876 -2.92254,1.06107 -0.0938,-0.15912 -0.8287,-1.433 -1.63297,-2.83084 l -1.46233,-2.54155 -0.0555,3.51723 -0.0555,3.51721 -2.25975,1.1404 c -1.24287,0.62723 -2.32771,1.13946 -2.41073,1.1383 -0.083,-0.001 -0.15101,-4.42427 -0.15101,-9.82911 z m 6.68848,-4.30344 1.38546,-0.68774 -0.0607,-2.07669 c -0.0699,-2.39061 -0.0304,-2.36353 -1.97337,-1.35215 l -1.10731,0.57637 -0.0576,2.11397 c -0.0419,1.54024 0.007,2.11398 0.18528,2.11398 0.13359,0 0.86636,-0.30949 1.62835,-0.68774 z m 8.4302,6.36366 c -0.30508,-0.61391 -0.30134,-16.0847 0.004,-17.27567 0.35068,-1.36699 1.4252,-2.29374 3.72163,-3.20978 3.03237,-1.20963 5.55992,-1.92144 6.5508,-1.84487 0.77579,0.06 0.9187,0.15604 1.2298,0.8267 0.31477,0.67857 0.35194,1.55039 0.35121,8.23907 -5.8e-4,7.74778 -0.0909,8.77814 -0.83258,9.52226 -0.71906,0.72145 -8.17865,3.73387 -10.03969,4.05436 -0.63716,0.10973 -0.80161,0.0576 -0.98534,-0.31207 z m 6.21286,-5.44848 c 0.23944,-0.16313 0.30826,-1.16992 0.37688,-5.51382 0.0462,-2.92283 0.026,-5.56344 -0.045,-5.86802 -0.14213,-0.6098 -0.72786,-0.74782 -1.10373,-0.26004 -0.1795,0.2329 -0.32909,7.68691 -0.23237,11.57704 0.007,0.31599 0.58132,0.353 1.00433,0.0648 z m -73.27377,4.89784 c -2.02047,-0.52613 -2.2146,-0.66959 -2.2146,-1.63666 0,-1.06008 0.45612,-3.41768 0.96858,-5.00635 3.68409,-11.42119 17.70042,-20.88858 35.77349,-24.16331 11.007,-1.9944 23.45942,-1.60641 34.02418,1.06018 2.80948,0.70911 7.54973,2.30521 7.54973,2.54207 0,0.0991 -0.0941,0.1802 -0.20887,0.1802 -0.29849,0 -6.51813,2.50046 -10.66275,4.28671 -5.12556,2.20901 -9.66324,4.3242 -19.62932,9.15 -10.15571,4.91763 -11.68223,5.62753 -16.10612,7.49013 -6.74813,2.84118 -12.77157,4.71898 -18.46932,5.75782 -3.15639,0.57549 -9.38203,0.76703 -11.025,0.33921 z m 7.04642,-2.7099 c -0.8776,-0.36779 -0.9044,-0.40645 -0.85593,-1.23492 0.0884,-1.51113 0.85886,-4.26251 1.69482,-6.05235 1.12359,-2.40564 2.4657,-4.2881 4.68997,-6.57814 6.64271,-6.83909 18.1639,-11.33563 32.52184,-12.69272 0.49828,-0.0471 -0.18119,-0.0444 -1.50995,0.005 -5.30172,0.20062 -11.73644,1.21312 -16.91142,2.66097 -11.08342,3.10092 -19.1242,8.80569 -22.62996,16.05555 -0.8225,1.70095 -1.70788,4.60738 -1.92279,6.31197 -0.11929,0.94608 -0.0958,1.01275 0.43575,1.23795 1.17701,0.49862 2.02603,0.65029 3.68235,0.65781 l 1.71129,0.007 -0.90597,-0.37968 z m 97.03934,-1.33129 c -0.50304,-0.54175 -0.52025,-1.55273 -0.0344,-2.02616 0.48869,-0.47628 1.50071,-0.45638 1.91588,0.0377 0.73323,0.87254 0.10912,2.42212 -0.97542,2.42212 -0.27683,0 -0.68452,-0.19513 -0.90598,-0.43363 z m 1.57036,-0.26018 c 0.13287,-0.14311 0.24157,-0.53547 0.24157,-0.87193 0,-0.74004 -0.81585,-1.2707 -1.37458,-0.89408 -0.41634,0.28067 -0.54987,1.29371 -0.22591,1.71407 0.29238,0.3794 1.0287,0.40756 1.35892,0.0519 z m -1.15354,-0.76972 c -0.011,-0.7623 0.0512,-0.92146 0.36385,-0.92146 0.5184,0 0.96308,0.59381 0.6761,0.90288 -0.11954,0.12873 -0.16943,0.36852 -0.11096,0.53286 0.15753,0.4421 -0.27168,0.36345 -0.43999,-0.0807 -0.13203,-0.34832 -0.15739,-0.34386 -0.30938,0.0543 -0.12528,0.32828 -0.16901,0.20979 -0.17972,-0.48784 z m 0.73662,-0.402 c -0.067,-0.072 -0.24054,-0.0797 -0.38588,-0.0171 -0.16061,0.0692 -0.1128,0.12051 0.12174,0.13099 0.21223,0.01 0.33113,-0.0418 0.26424,-0.1139 z m -24.19391,0.95002 c -0.24672,-0.37936 -0.3134,-1.11548 -0.3134,-3.4599 l 0,-2.97802 1.45962,-0.45453 c 0.8028,-0.25 1.70106,-0.53887 1.99616,-0.64193 0.29509,-0.10312 0.58952,-0.13033 0.65431,-0.0606 0.0648,0.0698 0.11769,0.83319 0.11769,1.69653 l 0,1.5697 0.70465,-0.23291 0.70464,-0.2329 0,-1.45479 c 0,-0.90387 -0.0953,-1.53676 -0.25166,-1.67122 -0.13841,-0.11904 -1.28956,-0.52602 -2.55814,-0.90443 -1.26857,-0.3784 -2.42369,-0.79274 -2.56691,-0.92075 -0.19569,-0.1749 -0.26044,-1.22064 -0.26044,-4.2063 l 0,-3.97356 0.65432,-0.53576 c 1.37662,-1.12722 5.19573,-2.30493 7.47446,-2.30493 1.89227,0 1.93756,0.0811 1.93756,3.46997 0,2.46611 -0.0408,2.80221 -0.35232,2.90681 -0.38312,0.12865 -3.48429,0.77811 -3.71571,0.77817 -0.0783,10e-6 -0.16882,-0.69953 -0.20135,-1.55456 -0.062,-1.62803 -0.27575,-1.97546 -0.84108,-1.36663 -0.34853,0.37532 -0.46518,2.78206 -0.15995,3.29971 0.0876,0.14853 1.15072,0.46175 2.36251,0.69603 3.2493,0.6282 3.44103,1.00298 3.27126,6.39388 -0.109,3.46206 -0.34482,4.07398 -1.8741,4.86356 -1.4176,0.7319 -5.36462,1.76118 -6.75372,1.76118 -0.98605,0 -1.22548,-0.0775 -1.48847,-0.48186 z m 12.07781,-2.10314 c -0.0562,-0.098 -0.10789,-4.45924 -0.11463,-9.69167 l -0.0129,-9.51349 4.6389,-0.0582 4.63886,-0.0582 0,1.84695 0,1.84693 -2.51656,0 -2.51658,0 0,1.95137 0,1.95136 2.63441,0 2.63441,0 -0.14232,1.68034 c -0.0783,0.92418 -0.183,1.72787 -0.23271,1.78598 -0.12075,0.14112 -0.22665,0.14836 -2.72953,0.18655 l -2.16426,0.0329 0,2.09273 0,2.09271 2.51658,-0.12811 2.51656,-0.1281 0,1.91475 0,1.91475 -3.57353,0.13427 c -1.96547,0.0738 -4.00137,0.17701 -4.52423,0.22922 -0.52289,0.0522 -0.99671,0.0147 -1.05295,-0.0833 z m -61.91751,-28.18772 0,-1.28554 1.05696,-0.2338 c 8.43433,-1.86571 21.84967,-2.00202 32.16191,-0.32681 3.03572,0.49315 2.81858,0.34915 2.81858,1.86889 0,1.24966 -0.0208,1.30423 -0.453,1.18867 -0.57179,-0.15291 -7.35301,-1.11715 -10.41865,-1.48146 -1.30605,-0.15522 -4.68466,-0.2736 -7.75104,-0.27159 -5.69235,0.004 -7.67895,0.18597 -14.152,1.29814 -1.69347,0.29097 -3.12037,0.52903 -3.1709,0.52903 -0.0505,0 -0.092,-0.57849 -0.092,-1.28553 z m -0.0637,-3.01491 c -0.22234,-1.19723 -1.01445,-1.87221 -3.70654,-3.15848 -2.98573,-1.42656 -4.19647,-2.31164 -5.10267,-3.73011 -1.15746,-1.81176 -1.47653,-2.97748 -1.47732,-5.39752 -5.8e-4,-1.92587 0.0638,-2.32103 0.57705,-3.5359 0.69564,-1.64678 1.89316,-2.8603 3.50254,-3.54934 0.95978,-0.41092 1.52898,-0.48805 3.65348,-0.49507 1.75355,-0.005 2.66114,0.0803 2.99328,0.28401 0.44957,0.27567 0.52738,0.2299 1.367,-0.80375 2.13147,-2.62408 6.62841,-3.59913 9.67396,-2.09755 1.21342,0.59827 1.17239,0.63435 1.36227,-1.19757 0.3341,-3.22322 2.65062,-5.84185 5.16788,-5.84185 2.59589,0 4.80596,2.53213 5.44622,6.23984 l 0.21986,1.27315 1.22928,-0.5377 c 1.62187,-0.70944 3.6413,-0.85258 5.35552,-0.37961 1.63344,0.45065 2.64533,1.08644 3.97857,2.49981 0.96857,1.02676 1.08561,1.09151 1.50586,0.83309 0.30794,-0.18935 1.27146,-0.27749 2.97224,-0.27187 2.15876,0.007 2.68664,0.081 3.71263,0.51891 4.99369,2.13177 5.56517,10.3307 0.98422,14.12017 -0.65683,0.54333 -2.12187,1.40943 -3.25566,1.92467 -2.66402,1.21062 -3.26771,1.65782 -3.75124,2.77891 -0.2186,0.50681 -0.53569,0.92143 -0.70465,0.92133 -0.16895,-8e-5 -1.89263,-0.23644 -3.83041,-0.52526 -1.93777,-0.28881 -4.61037,-0.65462 -5.93913,-0.81291 -3.18602,-0.37955 -13.57573,-0.38352 -16.4081,-0.006 -2.52232,0.33597 -8.6225,1.32251 -9.08381,1.46907 -0.23257,0.0738 -0.35943,-0.0758 -0.44233,-0.52223 z m 6.49278,-3.30962 1.78938,-0.24715 -2.27661,-2.41331 c -1.41658,-1.50166 -2.51981,-2.88427 -2.92043,-3.66001 -0.71233,-1.37933 -1.09379,-1.53189 -2.29511,-0.91797 -1.7448,0.89167 -1.74789,3.99558 -0.006,5.75822 0.9205,0.93132 2.75366,1.92515 3.36089,1.8221 0.30702,-0.0522 1.36342,-0.20596 2.34757,-0.34188 z m 27.23759,-0.3115 c 2.00698,-1.14772 2.97483,-2.59578 2.97483,-4.45083 0,-1.12354 -0.49819,-2.05093 -1.33018,-2.47611 -1.20133,-0.61392 -1.58278,-0.46136 -2.2951,0.91797 -0.40056,0.77562 -1.50368,2.15818 -2.91947,3.65898 l -2.2756,2.41227 2.04459,0.32475 c 1.12453,0.17862 2.13816,0.33709 2.25251,0.35215 0.11439,0.0151 0.81114,-0.31757 1.54842,-0.73918 z m -18.42461,-0.31751 0.89158,0 -0.44659,-0.67543 c -0.6681,-1.01045 -2.11181,-4.57668 -2.51937,-6.22327 -0.19721,-0.79684 -0.45476,-1.52052 -0.5723,-1.6082 -0.30344,-0.22636 -2.10389,0.0426 -2.89014,0.43171 -0.88034,0.43569 -1.317,1.36548 -1.14781,2.44397 0.19753,1.25926 1.36232,3.20518 2.76747,4.62345 1.22421,1.23565 1.28019,1.26541 2.14133,1.1383 0.48633,-0.0718 1.28546,-0.13053 1.77583,-0.13053 z m 9.71665,-1.26504 c 1.40771,-1.48922 2.6226,-3.68353 2.62296,-4.73754 3.7e-4,-1.38462 -0.80373,-2.15311 -2.57868,-2.46422 -1.34166,-0.23517 -1.85035,-0.11378 -1.85035,0.44187 0,1.12115 -2.45159,7.31048 -3.06482,7.7375 -0.22785,0.15869 0.80993,0.32486 2.91514,0.46681 0.43763,0.0296 0.85113,-0.27588 1.95575,-1.44442 z m 15.9051,-2.77704 c 0.71664,-0.45593 1.44526,-1.56689 1.80954,-2.75919 0.49973,-1.63564 -0.13319,-3.95873 -1.28455,-4.71487 -0.86063,-0.56518 -0.90569,-0.53124 -0.68059,0.51264 0.40348,1.87097 -0.15948,5.18702 -1.14651,6.75339 -0.27735,0.44016 -0.50427,0.83792 -0.50427,0.88393 0,0.16026 1.19471,-0.28679 1.80638,-0.6759 z m -44.37958,-0.19484 c -0.90643,-1.43845 -1.21546,-2.82524 -1.21345,-5.44536 0.002,-2.66861 -0.0329,-2.71168 -1.16345,-1.43197 -1.05175,1.1906 -1.24236,3.18122 -0.47252,4.93494 0.69295,1.57859 1.88275,2.65266 2.98701,2.69648 0.29989,0.011 0.2815,-0.089 -0.13759,-0.75409 z m 21.89664,0.16571 c 0.17807,-0.21192 0.57395,-0.96808 0.87971,-1.68035 0.45224,-1.05347 0.55677,-1.6057 0.56039,-2.96075 0.004,-1.50432 -0.0538,-1.75438 -0.59685,-2.581 -0.96281,-1.46549 -1.21984,-1.53596 -2.01717,-0.553 -0.81081,0.99958 -1.21866,2.65508 -1.0148,4.11915 0.14088,1.01177 1.42181,4.04126 1.70872,4.04126 0.086,0 0.3019,-0.1734 0.48,-0.38531 z m -12.87795,-5.41456 c -0.56953,-1.97995 0.1639,-4.73316 1.60994,-6.04353 0.32352,-0.29318 0.54694,-0.57749 0.49649,-0.6318 -0.21732,-0.23404 -2.13836,0.59618 -2.85375,1.23332 -0.8221,0.73218 -1.52243,2.10022 -1.52987,2.98855 -0.006,0.87349 0.79703,2.38078 1.5738,2.94923 0.40142,0.29376 0.79055,0.5341 0.86474,0.5341 0.0742,0 0.002,-0.46343 -0.16135,-1.02987 z m 25.80913,0.56159 c 1.65358,-1.22023 2.06187,-3.3436 0.96706,-5.0292 -0.61852,-0.95229 -2.10016,-1.93871 -3.26171,-2.1715 l -0.67836,-0.13597 0.84901,0.88734 c 1.67813,1.75388 2.18422,4.27064 1.31475,6.53819 -0.19332,0.50417 0.0404,0.4785 0.80925,-0.0889 z m -32.68243,-0.16626 c 0.36621,-0.22975 1.00355,-0.48414 1.41635,-0.56529 0.64884,-0.12759 0.72383,-0.20119 0.55363,-0.54368 -0.10826,-0.21788 -0.19685,-0.83119 -0.19685,-1.36289 0,-1.16227 -0.3354,-1.38754 -1.3181,-0.88535 -1.01727,0.51986 -1.75835,2.36526 -1.37828,3.43198 0.15177,0.42592 0.12137,0.42838 0.92325,-0.0747 z m 39.70163,0.0747 c 0.39425,-1.10649 -0.35662,-3.00134 -1.37005,-3.45736 -0.95902,-0.43155 -1.27712,-0.24902 -1.26001,0.72306 0.007,0.44037 -0.0485,1.05828 -0.12503,1.37313 -0.12554,0.51666 -0.0756,0.58544 0.51345,0.70562 0.35893,0.0732 0.92439,0.32073 1.25658,0.54999 0.75444,0.52064 0.83415,0.52919 0.98509,0.10557 z m -26.82833,-2.97983 1.53718,0.0159 0.1177,-0.78575 c 0.0648,-0.43218 0.14308,-0.97788 0.1741,-1.2127 0.0432,-0.32657 -0.13192,-0.49473 -0.74469,-0.71533 -1.5483,-0.55737 -3.24247,0.2464 -3.85681,1.82984 -0.42074,1.08446 -0.36832,1.19508 0.48037,1.0136 0.41523,-0.0888 1.4467,-0.15428 2.29214,-0.14555 z m 16.07891,-0.0486 c 0,-0.99932 -1.12882,-2.32997 -2.25501,-2.65825 -1.18012,-0.34398 -2.99452,0.27364 -2.63651,0.89748 0.0756,0.13149 0.18893,0.58388 0.25217,1.00532 l 0.115,0.7662 1.90986,0.12125 c 1.05042,0.0667 2.06841,0.13978 2.26219,0.16261 0.20056,0.0238 0.35232,-0.10324 0.35232,-0.29449 z m -8.47259,-4.5604 c 1.36311,-1.23523 1.09182,-3.57292 -0.56178,-4.84098 l -0.59492,-0.45623 -0.62841,0.56945 c -0.83402,0.75577 -1.21791,1.60353 -1.21791,2.68947 0,2.19738 1.6166,3.29465 3.00302,2.03829 z"
       id="path4257"
       inkscape:connector-curvature="0"
       inkscape:export-xdpi="51.066521"
       inkscape:export-ydpi="51.066521" />
    <path
       style="fill:#babdb6;stroke:#888a85;stroke-width:0.33426771"
       d="m 396.11216,382.65468 c -0.0672,-0.006 -0.34725,-0.0276 -0.62249,-0.05 -7.93402,-0.64426 -15.26138,-5.0985 -19.93552,-12.11865 -2.77435,-4.16684 -4.47028,-9.01119 -4.93773,-14.10448 -0.10221,-1.11365 -0.11189,-1.37148 -0.11109,-2.95761 10e-4,-1.62506 0.0166,-1.99521 0.13548,-3.16793 0.24902,-2.45781 0.81656,-4.99296 1.6214,-7.24283 0.97526,-2.72625 2.33336,-5.30706 3.97611,-7.55585 2.07607,-2.84199 4.62788,-5.26803 7.47282,-7.10451 3.79799,-2.4517 8.00122,-3.83081 12.48647,-4.09689 0.58278,-0.0346 2.30289,-0.0346 2.88233,2e-5 6.75937,0.40343 12.99389,3.3985 17.75755,8.53072 3.3612,3.62125 5.76821,8.09034 7.00425,13.0048 0.42757,1.69997 0.69005,3.3249 0.85924,5.31897 0.0524,0.61817 0.0761,3.34003 0.0353,4.07492 -0.19532,3.52722 -0.94546,6.87262 -2.26664,10.10844 -0.26566,0.65063 -0.89787,2.00065 -1.225,2.61583 -0.97623,1.83583 -2.10877,3.52532 -3.41955,5.10114 -0.44879,0.53955 -1.53553,1.70991 -2.03652,2.19323 -1.46354,1.41192 -3.03581,2.63427 -4.73667,3.68245 -0.50116,0.30886 -1.73822,0.98797 -2.24586,1.23295 -2.60072,1.25498 -5.30075,2.05208 -8.1046,2.39263 -1.06863,0.12979 -1.2755,0.14022 -2.90496,0.1463 -0.85929,0.003 -1.61726,0.001 -1.68439,-0.004 z m 1.18362,-20.68759 c 0.89308,-0.1569 1.91487,-0.61643 2.83206,-1.27372 0.11413,-0.0818 0.21944,-0.15623 0.23402,-0.16543 0.0146,-0.009 0.17387,0.12595 0.35397,0.30033 0.40306,0.39029 0.76351,0.70531 0.97862,0.8553 l 0.16295,0.11362 1.93644,-10e-4 1.93643,-0.001 -0.19309,-0.0782 c -0.86277,-0.34937 -2.0971,-1.12911 -2.93157,-1.85189 -0.26117,-0.22621 -0.67131,-0.63776 -0.67131,-0.67361 0,-0.0139 0.0909,-0.1341 0.20197,-0.267 0.7594,-0.90857 1.11067,-1.74446 1.24779,-2.96921 l 0.0139,-0.12488 -0.99008,0 -0.99006,0 0.0759,0.0687 c 0.20812,0.18859 0.3107,0.48818 0.28182,0.82301 -0.0221,0.25652 -0.1088,0.62415 -0.20393,0.86487 -0.0813,0.20591 -0.28173,0.55688 -0.31792,0.55688 -0.0124,0 -0.10963,-0.14493 -0.2162,-0.32206 -0.53905,-0.89592 -0.8652,-1.62628 -1.06546,-2.38592 -0.0838,-0.31788 -0.19853,-0.88949 -0.18194,-0.90641 0.004,-0.005 0.2907,-0.15101 0.63606,-0.32543 0.70211,-0.3546 1.11135,-0.58792 1.46871,-0.83733 0.99171,-0.69218 1.56895,-1.46122 1.7126,-2.28167 0.10562,-0.60322 -0.0562,-1.19813 -0.44776,-1.64642 -0.50187,-0.57453 -1.19606,-0.84397 -2.06765,-0.80253 -0.50457,0.024 -0.92527,0.14279 -1.41587,0.39984 -0.35928,0.18825 -0.58991,0.36736 -0.89284,0.6934 -0.51561,0.55495 -0.84483,1.21681 -1.06002,2.13101 -0.13852,0.58853 -0.22534,1.46436 -0.19718,1.98901 l 0.0158,0.29308 -0.16563,0.068 c -0.0911,0.0374 -0.34139,0.13423 -0.5562,0.21517 -1.24887,0.47049 -2.0586,0.96838 -2.68527,1.6511 -0.66155,0.72074 -0.96439,1.46723 -1.00505,2.47741 -0.0415,1.03152 0.2458,1.84611 0.88563,2.51086 0.19041,0.19781 0.49151,0.42717 0.731,0.55683 0.33442,0.18104 0.88205,0.33426 1.37795,0.38553 0.30288,0.0313 0.87952,0.0119 1.17142,-0.0393 z m -0.35688,-1.66918 c -0.58944,-0.11389 -1.05851,-0.46344 -1.27448,-0.94971 -0.13674,-0.30789 -0.18624,-0.567 -0.18506,-0.96869 0.001,-0.36329 0.0463,-0.591 0.18138,-0.91167 0.26409,-0.62723 0.90185,-1.30213 1.67693,-1.77455 0.31676,-0.19307 0.42226,-0.23594 0.42226,-0.17159 0,0.0746 0.22398,0.7932 0.38273,1.22784 0.17851,0.48873 0.53339,1.29054 0.76254,1.72282 0.0841,0.1586 0.26848,0.4753 0.40981,0.7038 0.14132,0.22849 0.25295,0.41938 0.24806,0.42419 -0.005,0.005 -0.12424,0.0709 -0.26521,0.14676 -0.35822,0.19287 -0.76105,0.3561 -1.14734,0.46491 -0.29587,0.0833 -0.36823,0.0937 -0.70794,0.10146 -0.2081,0.005 -0.43476,-0.002 -0.50368,-0.0156 z m 2.6617,-7.0064 c -0.009,-0.0366 -0.0102,-0.33538 -0.004,-0.66382 0.009,-0.47239 0.023,-0.65692 0.0654,-0.88317 0.19109,-1.02009 0.6394,-1.79057 1.22235,-2.1008 0.14324,-0.0762 0.18007,-0.0844 0.37839,-0.0842 0.23653,1.7e-4 0.35591,0.0448 0.46875,0.17507 0.19159,0.22119 0.18231,0.71968 -0.0232,1.24367 -0.22699,0.57888 -0.76191,1.29711 -1.38544,1.86018 -0.21939,0.19811 -0.64475,0.51977 -0.68734,0.51977 -0.0108,0 -0.0266,-0.0301 -0.0352,-0.0667 z m 11.43917,8.6893 c 1.30185,-0.14241 2.71358,-0.56222 3.857,-1.14698 l 0.28074,-0.14357 0.91017,-3.10739 c 0.50061,-1.70907 0.93723,-3.18452 0.9703,-3.27878 0.18438,-0.52558 0.50866,-0.89122 1.03516,-1.1672 l 0.2299,-0.1205 -3.06187,10e-4 -3.06186,0.001 0.1454,0.0847 c 0.22883,0.13336 0.41351,0.33444 0.51975,0.56592 0.0866,0.18866 0.0916,0.21336 0.0915,0.45073 l -1.9e-4,0.25114 -0.90001,3.08906 c -0.495,1.69897 -0.9094,3.10849 -0.92087,3.13226 -0.0532,0.11016 -0.96691,0.15413 -1.36145,0.0655 -0.49147,-0.11038 -0.83665,-0.30393 -1.15324,-0.64664 -0.39906,-0.43198 -0.62838,-0.98504 -0.74711,-1.80187 -0.0515,-0.35467 -0.0576,-1.37062 -0.0109,-1.82715 0.10732,-1.04865 0.36197,-2.28701 0.73997,-3.59853 0.78532,-2.72475 2.23328,-5.03879 3.81311,-6.0939 0.6647,-0.44394 1.34483,-0.68047 2.04508,-0.71126 1.15149,-0.0507 2.31538,0.41634 3.47145,1.39277 0.11856,0.10014 0.21917,0.1781 0.22355,0.17323 0.004,-0.005 0.15121,-0.50541 0.32628,-1.11233 0.20118,-0.69744 0.30898,-1.10969 0.29297,-1.12035 -0.0139,-0.009 -0.22481,-0.0779 -0.46861,-0.15248 -2.5561,-0.78208 -5.07124,-0.79656 -7.24187,-0.0416 -1.62272,0.56431 -3.13983,1.62183 -4.31728,3.00941 -0.61026,0.71917 -1.03912,1.3915 -1.44861,2.27098 -1.22258,2.62579 -1.54278,5.76394 -0.81985,8.03475 0.27051,0.84971 0.74858,1.64893 1.28121,2.14188 0.85983,0.79576 2.29982,1.33199 3.87646,1.44351 0.23813,0.0168 1.12672,-0.006 1.40365,-0.0366 z m -23.98824,-0.23784 c -0.12112,-0.0645 -0.32528,-0.2899 -0.39329,-0.43408 -0.0701,-0.14853 -0.1106,-0.38997 -0.0922,-0.54894 0.009,-0.075 0.36028,-1.31858 0.7813,-2.76349 0.73503,-2.52259 0.76776,-2.62699 0.82268,-2.62345 0.0314,0.002 0.2401,0.0168 0.46365,0.0328 1.35439,0.0972 2.77739,-0.0644 4.03643,-0.45856 1.99083,-0.62323 3.4715,-1.86804 4.29372,-3.60978 0.29698,-0.62912 0.53843,-1.36799 0.66399,-2.03199 0.0831,-0.43945 0.10643,-1.17769 0.0491,-1.55334 -0.0497,-0.32568 -0.15694,-0.6854 -0.28366,-0.9516 -0.51501,-1.08183 -1.67372,-1.80886 -3.18669,-1.99945 -0.26862,-0.0338 -0.87486,-0.0398 -4.07272,-0.0398 l -3.75713,0 0.13898,0.15692 c 0.0764,0.0863 0.16874,0.22532 0.20511,0.30891 0.0589,0.13544 0.066,0.18202 0.0655,0.42803 l -10e-4,0.27604 -0.89905,3.08905 c -0.4945,1.69898 -1.45883,5.01742 -2.14298,7.3743 -1.0639,3.66512 -1.25836,4.31162 -1.34381,4.46752 -0.17346,0.31652 -0.62415,0.77644 -0.87637,0.89436 -0.0733,0.0343 0.23953,0.0388 2.77351,0.0397 l 2.85614,0.001 -0.10162,-0.0542 z m 1.71279,-7.63388 c -0.0134,-0.006 -0.0778,-0.0185 -0.14304,-0.0279 -0.11287,-0.0164 -0.11798,-0.0207 -0.10535,-0.0875 0.0108,-0.057 1.60105,-5.52537 2.15734,-7.41826 l 0.14293,-0.48636 0.64624,0.001 c 0.59552,10e-4 0.66253,0.006 0.85374,0.0613 1.13332,0.32936 1.46928,1.44395 1.02325,3.39477 -0.0946,0.41389 -0.32443,1.16024 -0.47354,1.53795 -0.56454,1.43002 -1.40548,2.38986 -2.46416,2.81258 -0.41308,0.16494 -0.60277,0.20038 -1.13698,0.21241 -0.26181,0.006 -0.48701,0.006 -0.50043,3e-5 z"
       id="path4305"
       inkscape:connector-curvature="0"
       inkscape:export-xdpi="109.45892"
       inkscape:export-ydpi="109.45892" />
    <path
       style="fill:#babdb6;stroke:#888a85;stroke-width:0.4703542"
       d="m 185.45584,375.23891 c -3.1915,-0.82387 -7.36604,-5.34586 -8.6797,-9.40209 -0.33002,-1.01905 -0.7301,-2.25284 -0.88905,-2.74179 -0.37928,-1.16668 -0.37928,-10.01942 0,-11.18921 0.15895,-0.49025 0.56093,-1.72461 0.89328,-2.74302 0.83172,-2.54856 3.62278,-6.46489 5.62192,-7.88849 3.392,-2.41546 7.57877,-2.41926 11.1672,-0.0101 2.37107,1.59186 4.88333,5.1799 6.05347,8.64566 0.85839,2.54238 0.87345,2.6728 0.87616,7.58939 0.003,4.92859 -0.0102,5.04078 -0.87339,7.58937 -1.15936,3.42298 -3.69222,7.06471 -5.99833,8.62439 -2.65258,1.79399 -5.2524,2.27946 -8.17156,1.5259 z m 4.18422,-3.83874 c 0.21593,-0.30845 0.49364,-0.56081 0.61714,-0.56081 0.50988,0 2.0814,-2.89085 2.45247,-4.51136 0.4945,-2.15962 0.50745,-5.14177 0.032,-7.37917 -0.66794,-3.14337 -1.78719,-6.80376 -2.91124,-9.5209 -0.71578,-1.73022 -1.17757,-3.3587 -1.2872,-4.53934 -0.19559,-2.10607 -0.49707,-2.28075 -1.75029,-1.0141 -1.98843,2.00973 -2.4542,2.89739 -3.51263,6.6942 -0.37331,1.33913 -0.37028,4.4748 0.006,6.16312 0.52638,2.36213 1.86268,6.86644 2.21515,7.46666 0.18895,0.32177 0.34355,0.76644 0.34355,0.98816 0,0.22173 0.0876,0.45872 0.19456,0.52666 0.34958,0.22195 1.07764,2.68416 1.24179,4.19967 0.26342,2.43191 0.30966,2.52124 1.17684,2.27349 0.43412,-0.12402 0.96598,-0.47784 1.18191,-0.78628 z m 18.12544,-0.31686 c -2.29506,-0.95114 -3.5555,-2.96075 -3.9312,-6.26779 -0.1968,-1.73235 0.36176,-5.32902 1.07561,-6.92607 1.37784,-3.08256 3.0954,-4.23451 6.0296,-4.04396 1.75648,0.11407 2.18939,0.28019 2.98271,1.14454 1.56436,1.70443 2.0725,3.26077 2.0725,6.34774 0,3.82268 -1.16074,7.05238 -3.17062,8.82215 -1.21447,1.06935 -3.63863,1.51186 -5.0586,0.92339 z m 3.15747,-4.27563 c 1.12557,-1.3427 1.63971,-3.0611 1.64075,-5.48375 7.7e-4,-2.52844 -0.29683,-3.24451 -1.50779,-3.62443 -1.13822,-0.35712 -3.16071,1.08159 -3.16071,2.24837 0,0.23711 -0.17439,0.90875 -0.38752,1.49252 -0.58817,1.61092 -0.48743,3.40425 0.27101,4.82465 0.54369,1.01821 0.83292,1.23708 1.62133,1.22696 0.53549,-0.007 1.20859,-0.30933 1.52293,-0.68432 z m 28.6956,4.20794 c -1.18659,-0.53386 -1.80589,-1.24308 -2.56667,-2.93934 -0.67697,-1.50941 -0.67059,-6.83432 0.0105,-8.72425 1.41572,-3.92858 3.19427,-5.55839 6.0657,-5.55839 1.5634,0 1.91637,0.13531 2.83629,1.08721 0.57788,0.59795 1.13611,1.28463 1.24051,1.52594 0.29999,0.69336 0.60363,2.93453 0.41865,3.09013 -0.0922,0.0775 -0.76833,0.25665 -1.50262,0.39807 -1.29377,0.24919 -1.34966,0.22185 -1.80717,-0.8845 -0.57841,-1.39867 -1.14435,-1.68809 -2.26651,-1.15906 -1.07344,0.50604 -1.96792,2.87032 -2.14567,5.67136 -0.16093,2.53579 0.27365,3.75619 1.39295,3.91171 0.87855,0.12207 1.56191,-0.54396 2.11448,-2.06089 0.20564,-0.56449 0.53961,-0.83375 1.03414,-0.83375 1.07411,0 2.36431,0.73464 2.36431,1.34625 0,1.3788 -1.9944,4.46929 -3.10541,4.81209 -0.36086,0.11134 -0.99455,0.3554 -1.4082,0.54235 -0.93601,0.42304 -1.30376,0.39212 -2.67524,-0.22493 z m 11.13429,0.0338 c -1.28571,-0.66656 -2.14734,-2.09725 -2.31067,-3.83676 -0.1903,-2.02661 0.014,-3.01306 0.92635,-4.47278 0.80732,-1.29168 2.29419,-1.95259 5.5456,-2.46501 1.41694,-0.2233 1.49163,-0.28644 1.49163,-1.26061 0,-0.73935 -0.18439,-1.14553 -0.66075,-1.45557 -0.9513,-0.61915 -1.28087,-0.5429 -2.1455,0.49636 -0.61763,0.74235 -1.05412,0.9264 -2.19718,0.9264 -1.62283,0 -1.94041,-0.48426 -1.26501,-1.92894 1.15329,-2.46691 2.35792,-3.25889 4.95687,-3.25889 2.6666,0 3.85972,0.76436 4.53573,2.90581 0.45653,1.44615 0.45366,1.55852 -0.13099,5.12269 -0.32878,2.00426 -0.64314,4.85305 -0.6986,6.33067 l -0.10083,2.68654 -1.63795,0 c -1.20512,0 -1.67678,-0.14458 -1.78493,-0.54718 -0.12787,-0.47598 -0.25808,-0.46782 -1.00057,0.0627 -1.59892,1.14246 -1.75458,1.22559 -2.21197,1.18139 -0.25162,-0.0243 -0.84167,-0.24339 -1.31123,-0.48682 z m 4.07646,-4.6853 c 0.98622,-1.40875 1.08811,-2.93597 0.19588,-2.93597 -1.16411,0 -2.97055,1.12034 -3.11966,1.93478 -0.42109,2.30019 1.54345,2.97291 2.92378,1.00119 z m -38.89225,3.95026 c 0,-0.28873 0.0875,-0.58055 0.19456,-0.64849 0.45838,-0.291 4.4749,-7.03932 4.4749,-7.51845 0,-0.29001 -0.539,-2.03365 -1.19779,-3.87477 -0.65878,-1.84111 -1.12939,-3.60209 -1.04579,-3.91327 0.11003,-0.40962 0.53016,-0.56422 1.52205,-0.56011 0.75354,0.003 1.50068,0.12819 1.66032,0.27792 0.15963,0.14974 0.60156,1.15386 0.98204,2.2314 0.38048,1.07753 0.80415,1.85996 0.94147,1.73872 0.13732,-0.12124 0.85052,-1.12791 1.58489,-2.23706 l 1.3352,-2.01665 1.63325,0 c 2.50094,0 2.4858,0.1144 -0.68711,5.18732 -0.91847,1.46845 -1.81586,2.89114 -1.9942,3.16154 -0.49297,0.74738 -0.4254,1.09586 0.97699,5.03851 l 1.30125,3.65834 -1.94258,0 -1.94258,0 -0.55799,-1.85279 c -0.3069,-1.01904 -0.65567,-1.8528 -0.77506,-1.8528 -0.11939,0 -0.76305,0.83376 -1.43034,1.8528 l -1.21326,1.85279 -1.91011,0 c -1.47499,0 -1.91011,-0.11958 -1.91011,-0.52495 z m 13.60624,-0.30881 c 0.0975,-0.45856 0.34148,-2.00102 0.54228,-3.42767 0.20081,-1.42665 0.54807,-3.76117 0.7717,-5.18783 0.22364,-1.42664 0.52388,-3.50313 0.66719,-4.61439 0.14331,-1.11126 0.38627,-2.23683 0.5399,-2.50127 0.36833,-0.63394 2.97095,-0.64856 3.13236,-0.0176 0.0651,0.25475 -0.0434,1.4637 -0.24122,2.68655 -0.19786,1.22285 -0.4642,3.05711 -0.59186,4.07615 -0.29936,2.38958 -1.27053,8.75532 -1.42746,9.35661 -0.0801,0.30679 -0.70323,0.46321 -1.84549,0.46321 -1.66802,0 -1.71877,-0.0273 -1.5474,-0.83376 z m 31.40953,-0.74112 c 0.10046,-0.86617 0.28583,-1.85572 0.41194,-2.19898 0.1261,-0.34328 0.22928,-0.99962 0.22928,-1.45857 0,-0.45895 0.16276,-1.8456 0.36169,-3.08147 0.19892,-1.23587 0.57761,-3.62977 0.84153,-5.31978 0.52301,-3.349 0.69782,-3.58763 2.45163,-3.3467 0.58634,0.0805 0.96544,0.38623 1.15432,0.93073 l 0.28123,0.8108 0.76234,-0.8901 c 0.55034,-0.64258 1.09057,-0.89381 1.94267,-0.90344 1.56801,-0.0177 1.91671,0.49995 1.34178,1.99187 -0.73397,1.90467 -1.1434,2.44151 -1.86206,2.44151 -1.07839,0 -1.99726,0.79918 -2.70073,2.34892 -0.65006,1.43206 -1.72083,7.13581 -1.72083,9.1664 l 0,1.08369 -1.83871,0 -1.83871,0 0.18263,-1.57488 z m -28.39552,-17.47847 c -0.2353,-0.40497 -0.22177,-0.93576 0.0591,-2.31599 l 0.36431,-1.79062 1.37625,-0.114 c 0.92634,-0.0768 1.44519,0.0444 1.58714,0.37056 0.31109,0.7148 -0.0302,3.37693 -0.50159,3.91223 -0.55721,0.63276 -2.50582,0.59076 -2.88517,-0.0621 z"
       id="path4385"
       inkscape:connector-curvature="0"
       inkscape:export-xdpi="109.45892"
       inkscape:export-ydpi="109.45892" />
    <path
       style="fill:#babdb6"
       d="m 360.48103,583.93718 c -1.22679,-0.32506 -2.27341,-1.18832 -2.86035,-2.35923 l -0.38338,-0.76479 -0.0262,-29.42438 c -0.0261,-29.2353 -0.0249,-29.42831 0.18051,-30.03517 0.37984,-1.12201 1.47121,-2.24025 2.64001,-2.70505 l 0.60129,-0.23912 40.48964,0 40.48964,0 0.60129,0.23912 c 1.16725,0.46418 2.21509,1.53533 2.62349,2.68193 l 0.22433,0.62979 -7.8e-4,29.2763 c -7.8e-4,26.98639 -0.0143,29.31538 -0.17155,29.77622 -0.48442,1.42043 -1.71241,2.55545 -3.16951,2.92957 -0.54939,0.14103 -4.78276,0.15676 -40.64398,0.15077 -34.89931,-0.006 -40.10293,-0.026 -40.59414,-0.15596 z m 80.8166,-0.0268 c 0.16657,-0.0353 -17.89171,-0.0641 -40.1295,-0.0641 l -40.43235,0 -0.59187,-0.23562 c -1.09489,-0.4359 -2.1014,-1.41656 -2.51751,-2.45286 -0.17389,-0.43308 -0.18597,-1.96443 -0.23528,-29.82696 l -0.052,-29.37045 -0.0252,29.17448 c -0.0276,31.98546 -0.07,29.64294 0.55426,30.69519 0.56515,0.9527 1.84043,1.84705 2.93716,2.05986 0.50725,0.0984 80.02829,0.11865 80.49225,0.0204 z m 1.16861,-0.36717 c 1.04354,-0.479 2.15155,-1.78137 2.33156,-2.74053 0.0391,-0.20835 4e-5,-0.16036 -0.12385,0.15219 -0.52227,1.31749 -1.36025,2.17481 -2.58926,2.64889 -0.25989,0.10025 -0.40308,0.18397 -0.3182,0.18603 0.0849,0.003 0.39979,-0.10889 0.69975,-0.24658 z m 2.46431,-46.94838 c -0.0146,-8.04896 -0.0265,-1.46344 -0.0265,14.63453 0,16.09793 0.012,22.68346 0.0265,14.63448 0.0146,-8.04898 0.0146,-21.22003 0,-29.26901 z m -74.3033,39.97612 c 0.0423,-0.0676 0.11209,-1.6966 0.15494,-3.62002 0.0964,-4.32884 0.25372,-7.0231 0.66108,-11.32276 1.11714,-11.79135 3.6186,-23.0194 6.42199,-28.82567 1.33706,-2.76926 2.45809,-3.99414 3.65548,-3.99414 3.81036,0 6.9199,10.1109 8.15908,26.52979 l 0.1761,2.3334 4.418,0.0266 c 2.4299,0.0145 4.45106,-0.008 4.49145,-0.0507 0.0404,-0.0425 0.12643,-0.80765 0.19118,-1.70043 1.05843,-14.59208 3.56635,-24.39769 6.81968,-26.66397 0.74612,-0.51973 1.54062,-0.62358 2.20692,-0.28842 3.04435,1.53132 6.71174,12.84528 8.52281,26.29295 0.14653,1.08807 0.28829,2.08104 0.315,2.2066 l 0.0486,0.22825 3.60264,0 c 2.84494,0 3.61334,-0.0275 3.65352,-0.13073 0.0688,-0.17669 -0.66057,-3.66684 -1.34609,-6.44144 -1.71468,-6.94015 -3.87769,-13.03983 -6.32165,-17.8271 -1.89106,-3.70427 -3.28755,-5.73281 -5.16828,-7.50747 -1.69471,-1.59914 -2.75541,-2.11601 -4.35353,-2.12143 -1.67179,-0.006 -2.86248,0.56133 -4.43394,2.1116 -2.11005,2.08157 -3.81621,5.26555 -5.3873,10.0536 -0.93885,2.86125 -1.82897,6.52124 -2.36864,9.73942 -0.29095,1.73511 -0.30028,1.77541 -0.41056,1.77541 -0.052,0 -0.12534,-0.21685 -0.16288,-0.48187 -0.0375,-0.26507 -0.22723,-1.32652 -0.42158,-2.35879 -1.29832,-6.8962 -3.23375,-12.55922 -5.54394,-16.22152 -2.37022,-3.7574 -5.24575,-5.3298 -8.01073,-4.38035 -1.2994,0.44617 -3.15557,1.97583 -4.5057,3.71317 -5.69241,7.32477 -10.83832,23.33089 -12.47484,38.80241 -0.23397,2.21207 -0.3637,3.89132 -0.47412,6.13784 -0.13984,2.84513 -0.13254,3.97856 0.0261,4.04166 0.0707,0.0281 1.85069,0.0548 3.95543,0.0591 2.89278,0.006 3.84561,-0.022 3.90384,-0.11488 z m 55.33094,-2.36269 c -0.0122,-2.16132 -0.26735,-6.49779 -0.41045,-6.97605 -0.05,-0.16723 -0.30356,-0.17704 -3.9305,-0.15219 l -3.877,0.0266 0.006,0.50727 c 0.0315,2.70577 0.30722,8.94108 0.39814,9.00302 0.0607,0.0414 1.84682,0.0643 3.96905,0.0507 l 3.8586,-0.0244 -0.0137,-2.43485 z m 5.93027,1.15849 c 2.07199,-0.92474 2.02992,-3.84533 -0.0679,-4.70955 -0.82467,-0.33972 -2.02986,-0.12988 -2.76395,0.48126 -0.6411,0.53373 -0.99888,1.6722 -0.77879,2.47809 0.42877,1.56998 2.14759,2.40315 3.61058,1.7502 z m -2.01068,-0.23192 c -0.89057,-0.40886 -1.38662,-1.16781 -1.38263,-2.11538 0.008,-1.77973 1.97676,-2.86926 3.54655,-1.96221 0.23492,0.13573 0.54887,0.4209 0.69766,0.63366 1.35678,1.94026 -0.7125,4.43063 -2.86158,3.44393 z m 0.34426,-1.20555 0.0313,-0.4819 0.43773,0 c 0.54705,0 0.78309,0.16546 0.87534,0.61367 0.0583,0.28353 0.1252,0.35621 0.35138,0.38221 0.25275,0.0291 0.2793,0 0.2793,-0.29478 0,-0.19095 -0.10526,-0.46295 -0.25314,-0.6541 l -0.25314,-0.32723 0.21384,-0.18961 c 0.29821,-0.26443 0.38408,-0.54625 0.26716,-0.87697 -0.15917,-0.45019 -0.56708,-0.59295 -1.5979,-0.55935 l -0.89777,0.0294 -0.0289,1.31351 c -0.0159,0.72244 -0.005,1.3762 0.0252,1.45282 0.0299,0.0766 0.15854,0.12469 0.28618,0.10681 0.19811,-0.0278 0.23656,-0.10283 0.26335,-0.51436 z m 0.0887,-1.05679 c -0.0377,-0.0373 -0.0686,-0.24178 -0.0686,-0.45461 0,-0.3274 0.0393,-0.3967 0.25532,-0.45016 0.14043,-0.0348 0.42983,-0.0229 0.6431,0.0266 0.32599,0.0755 0.39328,0.13706 0.42233,0.38596 0.0229,0.19612 -0.0272,0.34063 -0.14828,0.42792 -0.18965,0.13675 -0.98349,0.18288 -1.10388,0.0643 z m -32.03604,0.70172 c 0.0251,-0.0419 0.0624,-1.51418 0.0833,-3.27186 l 0.0378,-3.19574 -4.06439,0 -4.06441,0 0.0379,3.19574 c 0.0209,1.75768 0.0583,3.22999 0.0832,3.27186 0.0249,0.0418 1.79938,0.0761 3.94324,0.0761 2.14385,0 3.91834,-0.0341 3.94331,-0.0761 z m -23.40281,-7.45678 c 0.0471,-0.12556 0.16411,-0.84461 0.25998,-1.59788 0.22814,-1.79253 0.27009,-1.9987 0.36999,-1.8178 0.0437,0.0791 0.2742,0.85112 0.51226,1.71562 0.23806,0.86447 0.47638,1.65201 0.5296,1.75006 0.0828,0.15255 0.2515,0.17828 1.16993,0.17828 1.25422,0 1.13852,0.10299 1.53862,-1.36963 0.57187,-2.10476 0.69408,-2.45095 0.78785,-2.23195 0.0708,0.16533 0.0825,0.1465 0.0635,-0.10145 -0.0451,-0.58752 -0.22654,-0.25329 -0.61622,1.13511 -0.21629,0.77068 -0.46207,1.64089 -0.54618,1.93383 l -0.15292,0.53264 -1.07318,0 -1.07317,0 -0.2029,-0.68483 c -0.11159,-0.37663 -0.35169,-1.23263 -0.53358,-1.90223 -0.30792,-1.13364 -0.44292,-1.47123 -0.54492,-1.36283 -0.0227,0.0241 -0.14036,0.79726 -0.26134,1.71793 -0.12098,0.92067 -0.24572,1.79949 -0.27721,1.95295 l -0.0572,0.27901 -1.12368,0 c -1.11682,0 -1.12368,0 -1.12368,-0.24294 0,-0.59797 1.15223,-7.41737 1.26521,-7.48818 0.16633,-0.10422 2.45534,-0.0996 2.62304,0.005 0.0729,0.0456 0.37387,0.96153 0.66883,2.03543 0.29495,1.07384 0.57976,1.96033 0.63289,1.96993 0.0531,0.01 0.33962,-0.86833 0.63662,-1.95093 0.297,-1.08263 0.6008,-2.00641 0.6751,-2.05285 0.0743,-0.0465 0.6735,-0.0852 1.33155,-0.0861 0.9052,0 1.22572,0.0331 1.31676,0.1414 0.10613,0.12609 1.24251,6.95723 1.24251,7.46912 0,0.1865 -0.0745,0.19974 -1.12492,0.19974 -0.9836,0 -1.13125,-0.0222 -1.17525,-0.17754 -0.0276,-0.0977 -0.13159,-0.82762 -0.23093,-1.62221 -0.0994,-0.79453 -0.20213,-1.42344 -0.22842,-1.3975 -0.0686,0.0676 0.28439,2.79792 0.39704,3.07045 0.0898,0.21735 0.14878,0.22825 1.23164,0.22825 0.93567,0 1.14822,-0.0281 1.19892,-0.15834 0.0339,-0.0871 -0.20053,-1.83334 -0.52095,-3.88056 -0.45011,-2.87581 -0.62141,-3.75105 -0.75334,-3.84901 -0.11418,-0.0848 -0.57346,-0.12683 -1.38586,-0.12683 -1.0293,0 -1.24319,0.0277 -1.39884,0.18119 -0.10823,0.10668 -0.36549,0.87082 -0.62594,1.85919 -0.24322,0.92289 -0.48215,1.74174 -0.531,1.81966 -0.11238,0.17929 -0.0809,0.26959 -0.65601,-1.87881 -0.30052,-1.12257 -0.52356,-1.76691 -0.64089,-1.85149 -0.24617,-0.17748 -2.5033,-0.17989 -2.74142,-0.003 -0.13119,0.0975 -0.30228,0.95615 -0.73995,3.71369 -0.31311,1.97279 -0.56928,3.71902 -0.56928,3.88056 l 0,0.29365 1.18584,0 c 1.1358,0 1.18947,-0.01 1.27153,-0.22825 z m 13.26465,-0.0617 c 0.65054,-0.33279 1.19427,-0.85904 1.51856,-1.46976 0.4314,-0.81238 0.36447,-0.87804 -0.8953,-0.87804 l -1.0506,0 -0.32987,0.35507 c -0.27573,0.2968 -0.40014,0.3551 -0.75799,0.3551 -0.31147,0 -0.49361,-0.0646 -0.66854,-0.23707 -0.21996,-0.21688 -0.45188,-0.9466 -0.48242,-1.51797 -0.009,-0.17072 -0.023,-0.18162 -0.0589,-0.0464 -0.0258,0.0973 0.008,0.43682 0.0747,0.75447 0.16295,0.77386 0.53267,1.14839 1.13366,1.14839 0.36166,0 0.4891,-0.0586 0.77273,-0.35511 l 0.33966,-0.35507 1.03586,0 c 1.1695,0 1.18884,0.017 0.82582,0.71843 -0.27274,0.52708 -0.90165,1.14233 -1.45773,1.42604 -0.66509,0.33933 -1.99443,0.38287 -2.77949,0.091 -0.96765,-0.3597 -1.69213,-1.17305 -1.99116,-2.23551 -0.0894,-0.31764 -0.13101,-0.37938 -0.13671,-0.20289 -0.005,0.1395 0.10102,0.48487 0.23451,0.76753 0.4184,0.88592 1.08869,1.49961 2.00688,1.83742 0.58633,0.2157 2.11476,0.12646 2.66634,-0.15571 z m 8.17031,0.0803 c 1.17253,-0.38945 2.0543,-1.18171 2.46756,-2.2171 0.32276,-0.80864 0.31972,-2.2583 -0.006,-3.07663 -0.31981,-0.80242 -1.09938,-1.62063 -1.8997,-1.99389 -0.86235,-0.40224 -1.76774,-0.51739 -4.06696,-0.51739 -1.6389,0 -1.97975,0.0256 -2.11539,0.15941 -0.14107,0.13908 -0.16169,0.62991 -0.16169,3.8469 0,2.02808 0.0281,3.75966 0.0624,3.84793 0.0546,0.14029 0.37886,0.16049 2.57565,0.16049 2.26809,0 2.57476,-0.0204 3.14452,-0.20972 z m -5.61112,0.0407 c -0.0378,-0.0372 -0.0686,-1.74008 -0.0686,-3.78416 0,-2.75537 0.0319,-3.74803 0.12349,-3.83829 0.16067,-0.15842 3.70635,-0.16645 4.74437,-0.0108 1.51925,0.2279 2.68279,1.07322 3.17053,2.30341 0.29933,0.75496 0.33044,2.16371 0.0643,2.91181 -0.25735,0.72339 -0.86822,1.46834 -1.5209,1.85471 -0.97496,0.57719 -1.31646,0.63088 -4.01091,0.63088 -1.33852,0 -2.46455,-0.0306 -2.50227,-0.0676 z m 5.32114,-0.18709 c 1.20036,-0.30829 2.12561,-1.0953 2.5454,-2.16519 0.319,-0.81301 0.31323,-2.07178 -0.0133,-2.90558 -0.32153,-0.82098 -1.1628,-1.65388 -2.00608,-1.98608 -0.58192,-0.22922 -0.75991,-0.2448 -3.1633,-0.27654 l -2.54667,-0.0337 0,3.76016 0,3.76017 2.29355,0 c 1.71405,0 2.44433,-0.0387 2.8904,-0.15328 z m -2.75489,-1.63044 c -0.0344,-0.0883 -0.0624,-0.97478 -0.0624,-1.97003 0,-0.99524 0.0281,-1.88176 0.0624,-1.97003 0.0502,-0.12876 0.23394,-0.16045 0.93118,-0.16045 0.94679,0 1.25464,0.10441 1.69339,0.57427 0.73328,0.78535 0.66508,2.53312 -0.12677,3.2488 -0.37313,0.33722 -0.7479,0.43793 -1.62987,0.43793 -0.63956,0 -0.81833,-0.033 -0.86793,-0.16049 z m 2.09994,-0.17329 c 0.63382,-0.33045 0.87304,-0.82279 0.87304,-1.79674 0,-1.43589 -0.58984,-2.02434 -2.0322,-2.02736 l -0.79744,-0.003 0,1.96144 c 0,1.07874 0.0309,1.99182 0.0686,2.02903 0.0377,0.0372 0.37771,0.0676 0.75554,0.0676 0.51759,0 0.79677,-0.0573 1.13246,-0.23229 z m -1.8537,-1.78599 0,-1.93834 0.67212,0 c 0.75049,0 1.22777,0.15982 1.55161,0.51956 0.50194,0.55756 0.60394,1.67972 0.22005,2.42048 -0.35467,0.6844 -0.66693,0.85709 -1.62756,0.90011 l -0.81622,0.0365 0,-1.93835 z m 11.21568,3.62977 c 0.7317,-0.34139 1.29877,-0.89797 1.63495,-1.60472 0.23626,-0.49666 0.26863,-0.69335 0.26863,-1.63211 0,-1.00251 -0.0206,-1.10872 -0.33954,-1.7474 -0.22089,-0.44241 -0.49755,-0.80767 -0.79173,-1.04538 -1.45987,-1.17945 -3.84415,-1.07482 -5.1143,0.22448 -0.20926,0.21404 -0.50748,0.66312 -0.66269,0.99791 -0.23574,0.5085 -0.28273,0.75073 -0.28543,1.47107 -0.004,1.02109 0.13313,1.53459 0.584,2.18986 0.73892,1.07391 1.63315,1.4804 3.16267,1.43763 0.80226,-0.0225 1.07896,-0.0746 1.54344,-0.29134 z m -3.00486,0.033 c -1.17146,-0.41958 -1.9059,-1.28371 -2.14268,-2.52101 -0.40185,-2.09988 0.74754,-3.83226 2.7886,-4.20306 1.66183,-0.30189 3.21454,0.42969 3.89077,1.83322 0.23687,0.4916 0.26886,0.68471 0.26886,1.62323 0,0.96189 -0.028,1.12148 -0.28875,1.64499 -0.35416,0.71111 -1.03655,1.3225 -1.78363,1.59809 -0.71445,0.26357 -2.03279,0.2754 -2.73317,0.0247 z m 2.85052,-0.21037 c 0.67018,-0.29479 1.31838,-0.92893 1.61105,-1.57615 0.18891,-0.4178 0.23461,-0.70314 0.2375,-1.48324 0.004,-0.89111 -0.0227,-1.01853 -0.33548,-1.64499 -0.39265,-0.7864 -0.85978,-1.20926 -1.66742,-1.50946 -0.46757,-0.1738 -0.73582,-0.20325 -1.54345,-0.16947 -1.08198,0.0452 -1.61796,0.24229 -2.24717,0.82604 -0.60534,0.56161 -0.87155,1.2109 -0.92103,2.24639 -0.0501,1.04876 0.0566,1.53737 0.47955,2.19486 0.37075,0.57638 0.8949,0.97991 1.59101,1.2248 0.73549,0.25875 2.0787,0.2065 2.79544,-0.10878 z m -2.10938,-1.30235 c -0.53345,-0.27015 -0.82321,-0.90452 -0.82301,-1.80176 2.2e-4,-0.84815 0.20115,-1.31555 0.70961,-1.65046 0.65795,-0.43335 1.50445,-0.20094 1.89111,0.51921 0.30875,0.57508 0.32092,1.78475 0.023,2.28348 -0.4271,0.71494 -1.15391,0.97712 -1.80068,0.64953 z m 1.22104,-0.17541 c 0.15862,-0.0808 0.35806,-0.31678 0.45026,-0.53262 0.19166,-0.44864 0.33563,-1.28831 0.17949,-1.04687 -0.0541,0.0837 -0.0991,0.28 -0.1,0.4362 -0.002,0.3627 -0.24427,0.82561 -0.53836,1.02869 -0.26445,0.18263 -0.92454,0.20882 -1.22796,0.0487 -0.48286,-0.25477 -0.74666,-1.47367 -0.50142,-2.31675 0.21849,-0.75116 0.90218,-1.08781 1.57244,-0.77421 0.39118,0.18304 0.57894,0.46003 0.706,1.04161 l 0.0838,0.38357 -0.0388,-0.43502 c -0.05,-0.56103 -0.28985,-0.91356 -0.75077,-1.10343 -1.20871,-0.49797 -2.141,0.92261 -1.65504,2.52188 0.23691,0.7796 1.0795,1.12596 1.82031,0.74825 z m 14.91227,1.64648 c 0.40015,-0.20471 0.53587,-0.23773 0.53587,-0.13038 0,0.079 0.0896,0.19099 0.19903,0.24877 0.28271,0.14917 2.0953,0.1357 2.2499,-0.0167 0.0894,-0.0882 0.12347,-0.82027 0.12347,-2.65645 0,-2.34195 -0.0159,-2.56715 -0.2094,-2.96123 -0.48941,-0.99679 -2.15341,-1.53567 -3.91217,-1.26695 -1.3507,0.20638 -2.25173,0.92615 -2.2563,1.80234 -0.002,0.29184 0.0353,0.33197 0.35911,0.39186 0.19843,0.0367 0.68306,0.0488 1.07695,0.0268 0.60878,-0.034 0.75997,-0.0813 1.00822,-0.31576 0.33339,-0.31493 0.77993,-0.36143 1.1325,-0.11794 0.25395,0.17537 0.29889,0.46997 0.0969,0.63524 -0.0724,0.0592 -0.60986,0.15619 -1.19418,0.2153 -1.18505,0.11992 -1.84082,0.35452 -2.35064,0.84093 -0.30969,0.29548 -0.62526,0.94312 -0.51331,1.05352 0.0271,0.0268 0.0817,-0.079 0.12116,-0.23506 0.22305,-0.88118 1.12687,-1.39612 2.7311,-1.556 1.20606,-0.12023 1.51895,-0.28279 1.40507,-0.73016 -0.133,-0.52246 -1.05135,-0.65099 -1.46989,-0.2057 -0.23026,0.24495 -0.3501,0.28188 -1.02374,0.31542 -1.0477,0.0522 -1.27805,-0.0158 -1.27805,-0.37687 0,-0.59528 0.73276,-1.31306 1.5847,-1.55229 0.65729,-0.18461 2.2792,-0.15815 2.968,0.0484 0.67204,0.20156 1.27773,0.67408 1.48205,1.1562 0.10419,0.24588 0.13902,0.96387 0.13902,2.86571 l 0,2.53762 -0.23152,0.0572 c -0.12733,0.0314 -0.62509,0.0438 -1.10612,0.0272 -0.79366,-0.0272 -0.88403,-0.051 -0.97621,-0.2582 -0.12337,-0.27727 -0.19947,-0.28271 -0.55136,-0.0395 -0.76467,0.52867 -2.12595,0.56427 -2.86769,0.0751 -0.49523,-0.3267 -0.94724,-1.10945 -0.96936,-1.67869 -0.0103,-0.26391 -0.0265,-0.29535 -0.0606,-0.11734 -0.12923,0.67469 0.45935,1.64762 1.22986,2.03298 0.63635,0.31827 1.78213,0.26592 2.52761,-0.11547 z m 11.12402,0.16485 c 0.30559,-0.12057 0.45664,-0.13309 0.61269,-0.0507 0.2188,0.11542 1.94171,0.15248 2.21869,0.0476 0.14444,-0.0546 0.16276,-0.49299 0.16276,-3.89505 0,-3.40203 -0.0183,-3.84041 -0.16276,-3.89504 -0.27158,-0.10278 -1.99785,-0.0688 -2.21061,0.0435 -0.16324,0.0861 -0.19903,0.2158 -0.19903,0.72115 l 0,0.61615 -0.28297,-0.0871 c -0.15563,-0.048 -0.72285,-0.086 -1.26047,-0.0846 -1.11783,0.003 -1.52791,0.15814 -2.18147,0.8259 -0.60144,0.61447 -0.82896,1.23877 -0.86229,2.36607 l -0.0285,0.96507 0.0839,-0.99002 c 0.13479,-1.58981 0.77705,-2.57101 1.93826,-2.9611 0.59756,-0.20076 1.76836,-0.20363 2.24925,-0.005 0.20317,0.0837 0.3869,0.15219 0.40828,0.15219 0.0214,0 0.0389,-0.28762 0.0389,-0.63915 0,-0.36184 0.0536,-0.69195 0.12347,-0.76088 0.12911,-0.12731 1.77701,-0.17495 2.08038,-0.0602 0.14434,0.0546 0.16276,0.48408 0.16276,3.79363 0,3.30954 -0.0184,3.739 -0.16276,3.7936 -0.28771,0.10886 -1.89113,0.0657 -2.0891,-0.0561 -0.14986,-0.0923 -0.28333,-0.0813 -0.61806,0.0507 -0.26288,0.10374 -0.71277,0.16759 -1.17083,0.1662 -0.85619,-0.003 -1.46844,-0.22688 -2.017,-0.73902 -0.36097,-0.33704 -0.82759,-1.1898 -0.84341,-1.54141 -0.005,-0.11161 -0.0323,-0.14626 -0.0607,-0.077 -0.0781,0.19073 0.16505,0.83745 0.49287,1.31061 0.29542,0.42645 0.79645,0.79776 1.37085,1.01597 0.46635,0.17716 1.73026,0.16256 2.20692,-0.0253 z m 10.19926,-0.21686 c 1.72684,-0.8451 1.747,-2.84968 0.0361,-3.59584 -0.23474,-0.1024 -0.87583,-0.27521 -1.42465,-0.38408 -0.5488,-0.10885 -1.06562,-0.25337 -1.14849,-0.32116 -0.37945,-0.31052 0.16702,-0.89911 0.71001,-0.76472 0.15145,0.0375 0.32981,0.1889 0.40523,0.34404 0.0741,0.15245 0.20382,0.28211 0.28828,0.28817 0.0845,0.006 0.10726,-0.006 0.0507,-0.0269 -0.0566,-0.0207 -0.18082,-0.17196 -0.27606,-0.33587 -0.31388,-0.54021 -1.1669,-0.52242 -1.36336,0.0285 -0.16259,0.45584 0.1592,0.67511 1.30461,0.8889 1.16831,0.21812 1.56853,0.37378 2.06437,0.80301 0.8562,0.74121 0.69089,2.13641 -0.33382,2.81725 -0.55475,0.36861 -1.29015,0.53412 -2.37325,0.53412 -1.73298,0 -2.70233,-0.49045 -2.98018,-1.50784 -0.17552,-0.64267 -0.0638,-0.72411 0.99306,-0.72411 0.89265,0 1.26684,0.10376 1.26684,0.35128 0,0.18455 0.48973,0.56179 0.7293,0.56179 0.30314,0 0.70262,-0.21919 0.76766,-0.42121 0.16262,-0.50522 -0.23533,-0.79397 -1.44551,-1.04878 -1.60523,-0.33799 -2.13878,-0.79059 -2.13878,-1.81428 0,-0.90596 0.49062,-1.51835 1.47455,-1.8406 0.81966,-0.26841 2.65057,-0.18358 3.33938,0.15471 0.28987,0.14237 0.61544,0.40307 0.746,0.59734 0.28178,0.41929 0.30716,0.88912 0.0516,0.95496 -0.1355,0.035 -0.12278,0.0493 0.0514,0.0581 0.1921,0.01 0.23152,-0.0409 0.23152,-0.29761 0,-0.69307 -0.5956,-1.3149 -1.51064,-1.57718 -0.78435,-0.22481 -2.70477,-0.16429 -3.22258,0.10157 -0.84694,0.43488 -1.26416,1.0454 -1.26416,1.8499 0,1.05374 0.5355,1.53101 2.1055,1.87664 0.56783,0.12497 1.14583,0.31524 1.28445,0.42274 0.31803,0.24665 0.28176,0.57081 -0.0866,0.77401 -0.37008,0.20413 -0.80779,0.0506 -1.00016,-0.35068 -0.0796,-0.16613 -0.19548,-0.33557 -0.25748,-0.37655 -0.17642,-0.11664 -1.90291,-0.0904 -2.13576,0.0326 -0.17423,0.0919 -0.19741,0.17176 -0.13992,0.48187 0.11312,0.61025 0.5302,1.21075 1.0098,1.45378 0.66052,0.33475 0.94814,0.37981 2.28737,0.35822 1.16605,-0.0189 1.27545,-0.0387 1.90359,-0.34608 z m -30.31265,0.11598 c 0.13566,-0.13374 0.16169,-0.47016 0.16169,-2.08977 l 0,-1.93039 0.31957,-0.29431 c 0.44639,-0.41116 1.01925,-0.41026 1.43758,0.003 l 0.30077,0.29655 0,1.98257 c 0,2.33065 -0.081,2.19258 1.2862,2.19258 1.3922,0 1.28621,0.23473 1.28621,-2.84826 0,-2.45807 -0.0144,-2.66603 -0.21059,-3.04526 -0.55683,-1.07616 -2.46814,-1.51535 -3.89566,-0.89521 -0.41058,0.17837 -0.47008,0.18213 -0.62948,0.0399 -0.14093,-0.12575 -0.39942,-0.15132 -1.2958,-0.12816 l -1.11975,0.029 -0.0272,3.29719 c -0.0249,3.00973 -0.012,3.30827 0.14829,3.42404 0.27211,0.19653 2.03186,0.17091 2.23826,-0.0327 z m -2.18067,-0.0266 c -0.10136,-0.0634 -0.12408,-0.79681 -0.1029,-3.32099 l 0.0272,-3.2396 1.07897,-0.029 c 0.91323,-0.0247 1.09833,-0.003 1.20514,0.14095 0.11719,0.15804 0.16182,0.15502 0.62707,-0.0423 1.1483,-0.48706 2.60911,-0.35557 3.37029,0.30339 0.65655,0.56836 0.66402,0.60799 0.66402,3.51718 0,2.30638 -0.0202,2.63956 -0.16275,2.69351 -0.30337,0.11479 -1.95128,0.0671 -2.08038,-0.0602 -0.0873,-0.0861 -0.12347,-0.6831 -0.12347,-2.0392 l 0,-1.91743 -0.34986,-0.34494 c -0.28679,-0.28279 -0.42772,-0.34495 -0.782,-0.34495 -0.35429,0 -0.49521,0.0622 -0.78202,0.34495 l -0.34984,0.34494 0,1.91743 c 0,1.3561 -0.0361,1.9531 -0.12348,2.0392 -0.14031,0.13834 -1.90483,0.16938 -2.11598,0.0373 z m 2.03425,-1.81768 c 3.1e-4,-0.93466 0.0485,-1.86969 0.10719,-2.07787 0.2435,-0.86446 1.39555,-1.19381 2.07715,-0.59385 l 0.33603,0.29582 0.0514,2.01223 0.0514,2.01225 1.05468,0.029 1.05469,0.029 -0.002,-2.56523 c -0.002,-2.46722 -0.0105,-2.58055 -0.23187,-2.96592 -0.15923,-0.27713 -0.40025,-0.48828 -0.78178,-0.6848 -0.48076,-0.24765 -0.66572,-0.28399 -1.44019,-0.28312 -0.72957,0 -0.98709,0.0462 -1.43901,0.25363 -0.66569,0.30553 -0.70416,0.30778 -0.78838,0.0462 -0.0617,-0.19172 -0.13771,-0.20441 -1.06162,-0.17755 l -0.99516,0.029 -0.0272,3.1704 -0.0272,3.17038 1.03043,0 1.03043,0 4.5e-4,-1.69932 z m 15.41326,1.88191 c 0.0916,-0.0903 0.12348,-1.08589 0.12348,-3.8516 0,-4.33693 0.1296,-3.93992 -1.2862,-3.93992 -1.41605,0 -1.2862,-0.3993 -1.2862,3.95515 0,3.45977 0.0136,3.75303 0.18007,3.84853 0.25952,0.14905 2.11545,0.13911 2.26885,-0.012 z m -2.22255,-0.10144 c -0.0914,-0.0902 -0.12348,-1.05961 -0.12348,-3.73346 0,-2.67383 0.0321,-3.64329 0.12348,-3.73343 0.1291,-0.1273 1.77701,-0.17495 2.08037,-0.0602 0.14434,0.0546 0.16276,0.48407 0.16276,3.7936 0,3.30954 -0.0184,3.739 -0.16276,3.79361 -0.30336,0.11478 -1.95127,0.0671 -2.08037,-0.0602 z m 2.14024,-3.737 0,-3.65585 -1.05469,0.029 -1.05468,0.029 -0.0271,3.49949 c -0.0149,1.92468 -0.005,3.5568 0.0225,3.6269 0.0352,0.0906 0.34827,0.12745 1.08179,0.12745 l 1.03219,0 0,-3.65584 z m -50.06661,3.47831 c 0.034,-0.20927 0.15535,-1.08808 0.26956,-1.95299 0.22562,-1.7086 0.27195,-1.92758 0.40775,-1.92758 0.1416,0 0.1642,0.0638 0.66629,1.88161 0.26129,0.94596 0.52263,1.86833 0.58077,2.04967 l 0.10569,0.32971 0.96667,0 0.96666,0 0.1535,-0.53261 c 0.0845,-0.29295 0.34333,-1.21745 0.57529,-2.05442 0.42738,-1.54206 0.55503,-1.83171 0.70313,-1.59544 0.044,0.0701 0.18345,0.91439 0.30994,1.87602 0.12647,0.96166 0.25431,1.87402 0.28406,2.02747 l 0.0541,0.27898 1.02078,0 c 0.56144,0 1.02079,-0.0256 1.02079,-0.0568 0,-0.19696 -1.15059,-7.29711 -1.19365,-7.36579 -0.0292,-0.0467 -0.62619,-0.085 -1.32645,-0.085 -1.12366,0 -1.27946,0.0211 -1.32647,0.17754 -0.0293,0.0976 -0.26892,0.97647 -0.53248,1.95297 -0.26357,0.97648 -0.52507,1.86064 -0.58108,1.96478 -0.18211,0.33859 -0.33468,-0.008 -0.84268,-1.91407 -0.26767,-1.00436 -0.51006,-1.90604 -0.53864,-2.00368 -0.0461,-0.15729 -0.20374,-0.17754 -1.3827,-0.17754 -0.7738,0 -1.33071,0.0405 -1.33071,0.0966 0,0.0786 -0.82173,5.35147 -1.08773,6.97971 l -0.0704,0.43117 1.03308,0 1.03307,0 0.0619,-0.38044 z m 12.89789,0.22564 c 0.29073,-0.0851 0.72744,-0.30384 0.97045,-0.48604 0.445,-0.33364 1.15018,-1.34458 1.0497,-1.50485 -0.0298,-0.0474 -0.45935,-0.0862 -0.9547,-0.0862 -0.8787,0 -0.90613,0.007 -1.12582,0.30026 -0.12962,0.17287 -0.39557,0.35066 -0.62668,0.41891 -0.34392,0.1016 -0.45827,0.0913 -0.79741,-0.072 -0.48584,-0.23393 -0.75584,-0.73491 -0.829,-1.53815 -0.0667,-0.73269 0.10285,-1.35866 0.48115,-1.77611 0.26059,-0.28756 0.35787,-0.32573 0.82988,-0.32573 0.48996,0 0.56259,0.0318 0.86824,0.38042 l 0.33355,0.38046 0.94089,0 c 0.58268,0 0.94088,-0.0402 0.94088,-0.10549 0,-0.1906 -0.40691,-0.89673 -0.71814,-1.24622 -0.16791,-0.18857 -0.59029,-0.46894 -0.93864,-0.62307 -0.57732,-0.25545 -0.71637,-0.27639 -1.57193,-0.23677 -0.99592,0.0462 -1.46542,0.21142 -2.1029,0.7403 -0.72225,0.5992 -1.14616,2.06531 -0.93797,3.24404 0.34935,1.97792 2.22221,3.11204 4.18845,2.53632 z m 30.47433,0.005 c 0.23723,-0.0825 0.56274,-0.24231 0.72337,-0.35508 0.37107,-0.26052 0.39935,-0.25786 0.51752,0.0486 0.0953,0.24724 0.12372,0.25364 1.12932,0.25364 l 1.0315,0 0,-2.46963 c 0,-2.38958 -0.008,-2.48414 -0.23944,-2.91676 -0.18699,-0.3492 -0.37133,-0.51381 -0.84162,-0.7515 -0.57845,-0.29239 -0.65515,-0.30437 -1.9471,-0.30437 -1.2619,0 -1.37986,0.0173 -1.91085,0.27932 -0.61688,0.30444 -0.8954,0.60939 -0.99215,1.08632 l -0.0625,0.30832 0.96465,-0.003 c 0.89234,-0.003 0.98282,-0.0207 1.20698,-0.25361 0.50032,-0.52006 1.66125,-0.20566 1.66125,0.44993 0,0.46745 -0.28661,0.62048 -1.35327,0.72254 -1.8513,0.17719 -2.54825,0.57384 -2.81944,1.60463 -0.4356,1.65574 1.16761,2.91311 2.93182,2.2994 z m -0.66736,-1.62074 c -0.68986,-0.68016 0.13943,-1.54771 1.39378,-1.45803 0.45235,0.0323 0.46375,0.0417 0.49459,0.40745 0.042,0.4979 -0.20009,0.93062 -0.63424,1.13375 -0.51488,0.24092 -0.95507,0.21173 -1.25413,-0.0831 z m 1.39378,-0.14233 c 0.27289,-0.19741 0.48493,-0.79559 0.37872,-1.06849 -0.039,-0.10006 -0.17449,-0.15948 -0.34978,-0.15327 l -0.28619,0.0102 0.2567,0.0704 c 0.30421,0.0835 0.37295,0.32438 0.20596,0.72189 -0.24691,0.5877 -1.34328,0.78225 -1.53461,0.2723 -0.16353,-0.43585 0.0624,-0.75041 0.63528,-0.8845 l 0.33377,-0.0781 -0.30868,-0.007 c -0.36583,-0.008 -0.62543,0.16419 -0.75454,0.5019 -0.28434,0.74373 0.67338,1.15748 1.42337,0.61492 z m 10.91917,1.69541 c 0.3859,-0.16368 0.54264,-0.18888 0.6313,-0.10145 0.0726,0.0716 0.50549,0.1163 1.12633,0.1163 l 1.00838,0 0,-3.65229 0,-3.65229 -1.01697,0 -1.01698,0 -0.0423,0.65554 c -0.0233,0.36054 -0.076,0.68876 -0.11722,0.7294 -0.0411,0.0407 -0.29377,-0.004 -0.5613,-0.0981 -1.40044,-0.49491 -3.03965,0.0952 -3.66404,1.31894 -0.47087,0.92287 -0.44555,2.55313 0.055,3.54134 0.59356,1.17183 2.27212,1.7049 3.59783,1.14259 z m -0.97055,-1.20429 c -0.40724,-0.1205 -0.58962,-0.29255 -0.80492,-0.7592 -0.22481,-0.48728 -0.25024,-1.44367 -0.0507,-1.90547 0.25324,-0.58601 0.62597,-0.83374 1.25432,-0.83374 0.49035,0 0.5952,0.039 0.89206,0.33164 l 0.33639,0.33161 0,1.10576 c 0,1.03076 -0.0169,1.1235 -0.2496,1.36784 -0.13728,0.14415 -0.4151,0.30745 -0.61738,0.36286 -0.41482,0.11361 -0.37179,0.11367 -0.76021,0 z m 1.15626,-0.36239 0.31659,-0.26265 0,-1.09315 c 0,-1.03428 -0.014,-1.10694 -0.26042,-1.34985 -0.34593,-0.34109 -0.87768,-0.43438 -1.31352,-0.23048 -0.33518,0.15682 -0.69353,0.6172 -0.68575,0.88102 0.002,0.0751 0.0653,0 0.14029,-0.16784 0.22445,-0.50136 0.53997,-0.71141 1.0521,-0.70039 0.32481,0.007 0.5272,0.0772 0.70943,0.24597 0.2407,0.22293 0.25497,0.2972 0.25497,1.32706 0,1.05773 -0.008,1.09736 -0.27111,1.30124 -0.18232,0.1414 -0.42157,0.21026 -0.73045,0.21026 -0.37928,0 -0.51037,-0.0539 -0.75228,-0.30921 -0.27823,-0.29369 -0.31511,-0.41597 -0.44221,-1.46622 -0.0251,-0.20701 -0.0416,-0.15833 -0.0516,0.15218 -0.0348,1.06918 0.44802,1.7247 1.2702,1.7247 0.33104,0 0.52951,-0.0682 0.76383,-0.26264 z m 9.67868,1.53891 c 0.88375,-0.322 1.3391,-0.94281 1.3391,-1.82571 0,-0.48654 -0.0436,-0.60843 -0.33441,-0.935 -0.42688,-0.47941 -0.92237,-0.69199 -2.11295,-0.90668 -1.09575,-0.19759 -1.46269,-0.41399 -1.46269,-0.86274 0,-0.67827 0.97051,-0.97255 1.49667,-0.45377 0.13891,0.13696 0.25256,0.29674 0.25256,0.35508 0,0.0665 0.37003,0.10606 0.99038,0.10606 l 0.99038,0 -0.0659,-0.32483 c -0.15731,-0.77547 -0.98093,-1.20713 -2.43602,-1.27667 -1.98004,-0.0947 -3.08085,0.57569 -3.07982,1.87547 4.5e-4,0.97779 0.48544,1.36396 2.14788,1.71134 1.00296,0.2096 1.45309,0.5065 1.45309,0.95847 0,0.8344 -1.44105,0.94971 -1.75317,0.14027 -0.09,-0.23337 -0.1342,-0.24337 -1.07392,-0.24337 l -0.98006,0 0,0.25767 c 0,0.68699 0.66061,1.3297 1.60657,1.5631 0.59491,0.14675 2.47568,0.0604 3.02229,-0.13869 z m -56.07929,-4.64535 c 0.24983,-0.65836 0.82318,-1.29001 1.46437,-1.61329 0.24286,-0.12244 0.81197,-0.28334 1.26472,-0.35754 l 0.82317,-0.13492 -0.72028,0.0538 c -0.78946,0.059 -1.54493,0.34862 -2.08565,0.79952 -0.69077,0.576 -1.16608,1.76244 -1.14028,2.84617 0.0104,0.43743 0.0234,0.40204 0.0945,-0.25718 0.0453,-0.42049 0.18008,-1.02194 0.29949,-1.33659 z m 2.30936,0.2729 c 0.37559,-0.56517 1.12362,-0.56023 1.565,0.0102 l 0.26825,0.34676 1.07143,0 c 0.86913,0 1.0829,-0.0294 1.13214,-0.156 0.0926,-0.23792 -0.23582,-0.98209 -0.63769,-1.44501 -0.39525,-0.45529 -1.4694,-1.04071 -1.88971,-1.0299 -0.18887,0.005 -0.1295,0.0433 0.20378,0.13187 0.98844,0.26279 1.74878,0.88874 2.10737,1.73495 0.27635,0.65212 0.26231,0.66265 -0.88303,0.66265 l -1.0321,0 -0.30985,-0.34797 c -0.36443,-0.40921 -0.79505,-0.53329 -1.19408,-0.34412 -0.36316,0.1722 -0.75652,0.74798 -0.74298,1.08752 0.01,0.23907 0.0179,0.23307 0.0894,-0.0632 0.0434,-0.17993 0.1568,-0.4445 0.25208,-0.58788 z m 48.8032,-0.98717 c 0.0545,-0.0698 0.20534,-0.52548 0.33541,-1.01272 0.29552,-1.10698 0.24754,-1.19453 -0.65325,-1.1923 -0.34678,0 -0.6971,0.0431 -0.77852,0.0939 -0.15572,0.0972 -0.29745,1.77089 -0.17632,2.08218 0.0766,0.19668 1.12327,0.22049 1.27268,0.029 z m -1.13699,-0.0423 c -0.10586,-0.10438 -0.0811,-1.50998 0.0318,-1.80262 0.0918,-0.23818 0.15073,-0.26011 0.69455,-0.25869 0.87747,0.003 0.91989,0.0518 0.70674,0.82596 -0.38089,1.38321 -0.327,1.30298 -0.8751,1.30298 -0.26914,0 -0.52021,-0.0306 -0.55794,-0.0676 z m 1.18353,-0.79471 c 0.28053,-1.08437 0.28807,-1.06526 -0.42017,-1.06526 l -0.6086,0 -0.0721,0.75867 c -0.0951,1.00056 -0.0551,1.08702 0.4849,1.048 l 0.43225,-0.0312 0.18373,-0.71017 z m -77.2221,-38.01294 c -0.0328,-0.0809 -0.0572,-0.0569 -0.0622,0.0613 -0.005,0.10695 0.0199,0.1669 0.0541,0.13317 0.0342,-0.0337 0.0378,-0.12121 0.008,-0.19447 z m 87.35885,0 c -0.0328,-0.0809 -0.0572,-0.0569 -0.0622,0.0613 -0.005,0.10695 0.0199,0.1669 0.0541,0.13317 0.0342,-0.0337 0.0378,-0.12121 0.008,-0.19447 z m -86.21528,-1.83775 c 0.56244,-0.56618 1.47858,-1.04204 2.28634,-1.18751 0.37671,-0.0678 14.04677,-0.0935 40.6382,-0.0761 22.0388,0.0145 39.93423,-0.003 39.76764,-0.038 -0.53218,-0.11259 -79.80849,-0.0987 -80.41171,0.0142 -0.3007,0.0562 -0.79333,0.21355 -1.09473,0.34958 -0.93064,0.42008 -2.02302,1.5844 -2.24123,2.38887 -0.0378,0.13949 0.0753,-0.0204 0.25137,-0.35511 0.17609,-0.33479 0.53795,-0.82793 0.80412,-1.09589 z m 85.95227,1.10145 c -0.29878,-0.66599 -1.25926,-1.61862 -1.99983,-1.98348 -0.34019,-0.1676 -0.69216,-0.30262 -0.78216,-0.29999 -0.09,0.003 0.0534,0.0884 0.31862,0.19067 0.26523,0.10224 0.64522,0.28522 0.84441,0.40658 0.51286,0.31251 1.25705,1.15985 1.52559,1.73696 0.12563,0.27003 0.24526,0.47431 0.26584,0.45402 0.0206,-0.0204 -0.057,-0.24745 -0.17247,-0.50476 z"
       id="path4467"
       inkscape:connector-curvature="0"
       inkscape:export-xdpi="109.45892"
       inkscape:export-ydpi="109.45892" />
    <path
       style="fill:#babdb6;stroke:#888a85;stroke-width:0.31278118"
       d="m 358.68089,478.8676 c -1.61815,-0.26689 -3.74257,-0.79247 -4.72095,-1.16794 -3.32424,-1.27578 -5.91596,-5.38459 -5.48892,-8.70192 0.13301,-1.03323 0.14478,-1.02009 0.19587,0.21889 0.14894,3.61173 2.89277,6.03317 7.72572,6.81797 7.93256,1.28815 31.20775,-1.85694 46.24091,-6.24834 11.13802,-3.25358 15.62388,-6.09369 17.15331,-10.8602 l 0.50461,-1.57265 -0.0873,2.82458 c -0.19906,6.44289 -3.43489,10.44417 -10.62132,13.13382 -5.49881,2.05804 -12.58014,3.64361 -22.16515,4.96293 -7.37345,1.01495 -24.08715,1.35975 -28.7368,0.59286 z m -4.37414,-3.8818 c -2.1903,-0.77265 -4.08415,-2.76996 -4.57758,-4.82764 -0.19867,-0.82854 -0.36205,-3.80652 -0.36306,-6.61774 -0.003,-6.52323 0.40283,-8.03712 2.91603,-10.8962 2.38658,-2.71499 4.18265,-3.77505 9.50919,-5.61237 10.96637,-3.7827 26.24849,-6.71077 39.88682,-7.64232 10.3085,-0.70412 14.50383,0.30393 16.62644,3.99499 0.81877,1.42377 0.85662,1.72813 0.95695,7.69687 0.0868,5.16133 0.01,6.50041 -0.45484,7.90169 -0.76209,2.29896 -2.46023,4.36005 -4.84594,5.88166 -5.28126,3.36841 -19.67466,7.2457 -35.82942,9.65174 -7.45248,1.10994 -21.23872,1.38152 -23.82459,0.46932 z m 2.43784,-4.35439 c 0.0859,-0.099 0.35337,-1.4861 0.59433,-3.08247 0.24095,-1.59636 0.56792,-3.04569 0.72658,-3.22073 0.28283,-0.31201 4.70792,-0.98159 4.69508,-0.71045 -0.003,0.076 -0.20295,1.52959 -0.44301,3.23039 l -0.4365,3.09235 1.50545,-0.22668 c 0.828,-0.12467 1.57885,-0.30151 1.66857,-0.39295 0.0897,-0.0915 0.68878,-3.89547 1.33123,-8.4534 l 1.1681,-8.28713 -1.49468,0.2577 c -1.79257,0.30907 -1.98503,0.42652 -1.98503,1.21142 0,0.3333 -0.15952,1.66135 -0.35449,2.95123 l -0.35451,2.34525 -1.85206,0.2501 c -1.01863,0.13755 -2.13098,0.34404 -2.47186,0.45886 -0.55934,0.18839 -0.5992,0.0576 -0.40862,-1.34052 0.11614,-0.8521 0.30352,-2.22716 0.4164,-3.0557 l 0.20523,-1.50645 -1.26764,0.006 c -0.69721,0.003 -1.44359,0.13462 -1.65861,0.2921 -0.21501,0.15749 -0.8398,3.41727 -1.3884,7.24397 -0.5486,3.82671 -1.08189,7.53185 -1.18511,8.23364 l -0.18763,1.27598 1.51047,-0.19615 c 0.83076,-0.10787 1.58078,-0.27713 1.66671,-0.37612 z m 14.68533,-2.57445 c 1.79794,-0.25415 3.36417,-0.56325 3.48052,-0.68689 0.11634,-0.12363 0.30945,-0.9198 0.42912,-1.76926 l 0.2176,-1.54447 -1.57327,0.29804 c -0.8653,0.16392 -1.97954,0.30813 -2.47611,0.32049 -0.87958,0.0219 -0.89736,-0.0188 -0.69002,-1.57815 0.11703,-0.88032 0.23334,-1.63372 0.25845,-1.67421 0.0252,-0.0405 1.0669,-0.26157 2.31511,-0.49129 1.24819,-0.22973 2.29365,-0.45081 2.32324,-0.49129 0.0296,-0.0405 0.15972,-0.81182 0.28917,-1.71406 l 0.23537,-1.64043 -1.42389,0.24831 c -0.78314,0.13656 -1.83767,0.33976 -2.3434,0.45157 -0.90754,0.20062 -0.91654,0.18444 -0.69215,-1.24415 0.12504,-0.79608 0.26673,-1.50115 0.31487,-1.56683 0.0481,-0.0657 1.11889,-0.29577 2.37946,-0.5113 2.42154,-0.41408 2.66092,-0.67207 2.67219,-2.88002 0.004,-0.83607 -0.0709,-0.86347 -1.71175,-0.62393 -0.94392,0.13782 -2.7421,0.44659 -3.99597,0.68618 l -2.27974,0.43561 -1.17428,8.40301 c -1.15346,8.25416 -1.16229,8.39975 -0.49888,8.2191 0.37146,-0.10116 2.14643,-0.39187 3.94436,-0.64603 z m 8.08953,-1.44746 c 0.13417,-0.13877 0.39552,-1.26131 0.58076,-2.49453 0.56563,-3.76554 0.62166,-3.93698 1.28705,-3.93698 0.82962,0 1.06381,0.47622 1.64755,3.3502 0.2697,1.32779 0.60068,2.38825 0.73552,2.35657 0.13485,-0.0317 0.72326,-0.0602 1.3076,-0.0634 1.90814,-0.0103 2.03564,-0.31361 1.43029,-3.40183 -0.295,-1.50496 -0.70476,-2.97006 -0.91058,-3.25575 -0.29207,-0.40545 -0.18846,-0.74381 0.47207,-1.54154 1.66266,-2.008 2.06213,-5.24246 0.86416,-6.99704 -0.54093,-0.79225 -0.95285,-0.9908 -2.04312,-0.98484 -1.30236,0.007 -5.80892,0.65501 -5.98756,0.86082 -0.0985,0.11348 -2.40634,15.83105 -2.40634,16.38841 0,0.39773 2.60018,0.15676 3.0226,-0.2801 z m 1.73896,-10.62129 c 0.42803,-2.94116 0.43981,-2.9658 1.41571,-2.9658 1.18398,0 1.75723,0.77875 1.48684,2.01988 -0.26346,1.20936 -0.75092,1.67859 -2.05627,1.97936 -1.01871,0.23472 -1.02901,0.22215 -0.84628,-1.03344 z m 10.76599,4.28394 c 0.35954,-2.53742 0.73702,-4.61347 0.83887,-4.61347 0.10185,0 0.60703,1.01684 1.12264,2.25966 0.51561,1.24281 1.02074,2.2569 1.12252,2.25354 0.10179,-0.003 0.91307,-1.20051 1.80284,-2.66033 0.88978,-1.45982 1.71252,-2.72168 1.82831,-2.80412 0.11579,-0.0825 -0.0592,1.6655 -0.389,3.88432 -0.82981,5.58371 -0.88261,5.28141 0.86883,4.97519 0.8108,-0.14176 1.54369,-0.33782 1.62864,-0.43571 0.22705,-0.26156 2.46132,-16.25221 2.29724,-16.44125 -0.0767,-0.0884 -0.77147,-0.0462 -1.54389,0.0938 -1.31261,0.23782 -1.53048,0.46239 -3.33255,3.43485 -1.06045,1.74924 -2.04186,3.18041 -2.18091,3.18041 -0.13904,0 -0.7348,-1.20475 -1.32392,-2.67723 l -1.07112,-2.67723 -1.46216,0.23089 c -0.80418,0.12699 -1.5161,0.29304 -1.58203,0.369 -0.10956,0.12622 -2.38352,15.75419 -2.38352,16.38088 0,0.14935 0.69874,0.17901 1.55276,0.0659 l 1.55277,-0.20562 0.65368,-4.61347 z m 18.67333,1.10235 c 1.75035,-1.0369 2.87573,-2.50629 3.90484,-5.09851 1.68883,-4.25398 1.4027,-9.01047 -0.62785,-10.43692 -2.23935,-1.57313 -6.30344,-0.312 -8.39108,2.60385 -3.03794,4.24315 -3.25465,11.56672 -0.39736,13.42907 1.15721,0.75427 3.80126,0.51559 5.51145,-0.49749 z m -3.61255,-4.04799 c -1.08502,-1.25002 -0.42096,-5.15194 1.16039,-6.81831 1.28787,-1.3571 2.4092,-1.47783 3.37639,-0.36357 0.93963,1.08252 0.98614,1.47016 0.4634,3.86187 -0.69462,3.1781 -3.50413,5.04356 -5.00018,3.32001 z m -58.66573,-1.10292 c -0.0482,-5.35678 3.30691,-10.52806 8.15372,-12.56739 10.19037,-4.28766 29.6549,-7.20434 44.76795,-6.70829 7.81074,0.25637 10.94841,0.71699 13.3211,1.95557 2.05322,1.07182 2.29794,1.54973 0.3269,0.63841 -2.13506,-0.98715 -14.42434,-0.84411 -22.47363,0.2616 -15.23205,2.09238 -30.63479,5.95933 -36.79229,9.23691 -3.62746,1.93086 -6.07747,4.89199 -7.03391,8.50132 -0.18071,0.68197 -0.2551,0.31858 -0.26984,-1.31813 z"
       id="path4595"
       inkscape:connector-curvature="0"
       inkscape:export-xdpi="109.45892"
       inkscape:export-ydpi="109.45892" />
    <path
       style="fill:#babdb6;stroke:#888a85;stroke-width:0.41096067"
       d="m 171.07445,415.66544 0,-13.02251 48.72156,0 c 26.79686,0 48.72127,0.0598 48.72092,0.13286 -3.3e-4,0.0731 -1.72518,5.87237 -3.83296,12.8873 l -3.83232,12.75445 -44.8886,0.1352 -44.8886,0.1352 0,-13.0225 z m 44.83202,10.30549 c 3.11751,-1.10534 4.05375,-2.54497 6.10396,-9.38585 1.03391,-3.44979 1.87982,-6.41745 1.87982,-6.59477 0,-0.17734 -1.69946,-0.32942 -3.77657,-0.33794 -5.2764,-0.0217 -7.33872,1.20415 -8.95915,5.32526 -1.03181,2.6241 -0.97738,3.9258 0.22966,5.49254 1.09881,1.42626 3.35919,1.75108 5.34968,0.76878 1.56849,-0.77406 1.1267,0.50194 -0.63662,1.83867 -0.93609,0.70962 -2.17889,1.05991 -3.85667,1.08697 -2.23164,0.036 -2.48837,0.15582 -2.60631,1.21642 -0.12225,1.09934 0.0255,1.17631 2.25183,1.17354 1.31047,-0.002 3.11964,-0.26426 4.02037,-0.58362 z m -1.8087,-7.06651 c -1.29566,-2.02641 1.60613,-7.22709 4.03244,-7.22709 0.78166,0 1.37736,0.32231 1.52619,0.82573 0.28811,0.97454 -0.90725,4.64223 -1.88874,5.79516 -1.07543,1.26329 -3.04205,1.58813 -3.66989,0.6062 z m 36.74775,3.07352 c 0.69512,-0.18045 1.52809,-0.85157 1.85106,-1.49137 0.58401,-1.15691 0.57444,-1.16207 -1.75365,-0.94348 -2.51118,0.23577 -3.89034,-0.70792 -3.62887,-2.48306 0.10469,-0.71076 0.79647,-0.89269 3.86932,-1.0176 3.56198,-0.14479 3.75366,-0.21327 3.98789,-1.42457 0.31944,-1.6521 -0.31966,-3.78921 -1.34649,-4.50252 -1.3548,-0.94115 -4.83497,-0.66789 -6.62968,0.52057 -2.72001,1.80117 -4.04038,6.08609 -2.80137,9.09114 0.83201,2.01788 3.61255,2.98796 6.45179,2.25089 z m -2.79293,-8.042 c 0.0164,-1.04136 1.77353,-2.79004 2.80354,-2.79004 0.7181,0 1.66678,1.599 1.42795,2.40684 -0.15984,0.54068 -0.84892,0.78177 -2.23444,0.78177 -1.10182,0 -2.0005,-0.17936 -1.99705,-0.39857 z m -59.52513,7.52064 c 0.47921,-0.16692 1.06557,-0.85695 1.30302,-1.5334 0.42972,-1.22419 0.42061,-1.22859 -1.96214,-0.94815 -2.17672,0.2562 -2.48989,0.15712 -3.4525,-1.09235 -1.29731,-1.68391 -1.32084,-2.65468 -0.13744,-5.67091 1.32033,-3.36521 3.77459,-4.98516 6.93545,-4.57775 2.09703,0.27029 2.35604,0.19137 2.59629,-0.79116 0.38005,-1.55427 0.0777,-1.74278 -2.78476,-1.73597 -6.74693,0.0161 -12.18873,6.05147 -10.90356,12.09299 0.21089,0.99138 0.65489,2.09493 0.98667,2.45235 1.52594,1.64382 5.26749,2.55379 7.41897,1.80435 z m 11.62846,-0.87771 c 2.26846,-1.48749 3.67253,-4.11103 3.67253,-6.86219 0,-1.74812 -0.1987,-2.21222 -1.33064,-3.10804 -4.93718,-3.90733 -13.00201,3.07553 -10.51593,9.10513 0.96524,2.34103 5.23422,2.79283 8.17404,0.8651 z m -4.46878,-1.01136 c -0.8645,-0.41509 -0.94723,-0.70778 -0.74721,-2.64346 0.32059,-3.10243 2.05453,-5.34793 3.96792,-5.1386 1.32503,0.14496 1.44942,0.30668 1.55205,2.01762 0.21914,3.65367 -2.45139,6.87908 -4.77276,5.76444 z m 12.86235,-2.9744 c 0.84165,-2.84983 1.95736,-6.56978 2.47936,-8.26656 l 0.94908,-3.08507 -1.65326,0.16218 -1.65326,0.16218 -1.43106,4.7829 c -0.78708,2.63061 -1.8685,6.27758 -2.40314,8.10439 l -0.97207,3.32147 1.57704,0 1.57706,0 1.53025,-5.18149 z m 21.25077,4.66321 c 0.68238,-0.33675 1.05022,-0.33675 1.05022,0 0,0.28505 0.73696,0.51828 1.6377,0.51828 1.22512,0 1.6377,-0.21323 1.6377,-0.84638 0,-0.4655 0.49401,-2.65265 1.09782,-4.8603 l 1.09781,-4.01392 -1.12065,-1.25121 c -0.99294,-1.10861 -1.53049,-1.25119 -4.71692,-1.25119 -3.45744,0 -3.61463,0.0523 -4.07192,1.35504 l -0.47567,1.35507 2.43372,-0.35741 c 2.83511,-0.41635 4.52754,-4.3e-4 4.52754,1.11175 0,0.62046 -0.60932,0.78702 -2.87913,0.78702 -3.18904,0 -5.42191,0.94412 -6.09527,2.57726 -0.71855,1.74274 -0.52148,3.66779 0.46757,4.56699 1.02431,0.93124 3.82448,1.0912 5.40948,0.309 z m -2.32753,-1.99493 c -0.96088,-0.29759 -0.91211,-2.09642 0.0754,-2.78245 0.96768,-0.67221 4.53059,-0.73322 4.53059,-0.0776 0,1.73481 -2.74191,3.43735 -4.60603,2.86001 z m 14.76534,0.78604 c 0.10125,-0.69064 -0.13484,-0.93 -0.91724,-0.93 -1.35851,0 -1.37381,-1.15555 -0.0661,-4.99367 0.81154,-2.38189 1.18886,-2.92899 2.1179,-3.0709 1.51272,-0.23107 1.82158,-1.50126 0.36506,-1.50126 -0.88845,0 -1.04443,-0.17987 -0.80651,-0.93002 0.75452,-2.37896 0.76133,-2.97838 0.0297,-2.61394 -0.3924,0.19544 -1.14096,0.35534 -1.66347,0.35534 -0.68747,0 -1.06835,0.44059 -1.3782,1.59431 -0.27783,1.0345 -0.70779,1.59431 -1.22452,1.59431 -0.43799,0 -0.9024,0.35872 -1.03202,0.79714 -0.15992,0.54098 0.0215,0.79716 0.56437,0.79716 0.78427,0 0.78281,0.0549 -0.0746,2.79004 -1.02405,3.26679 -1.34869,5.37292 -1.00653,6.53026 0.37189,1.25795 4.90095,0.88549 5.09218,-0.41877 z m 14.95565,-11.26592 c 0.15217,-0.51471 0.0309,-0.67209 -0.36562,-0.47458 -0.32631,0.16253 -0.59328,0.50907 -0.59328,0.77009 0,0.764 0.7104,0.54507 0.9589,-0.29551 z"
       id="path4659"
       inkscape:connector-curvature="0"
       inkscape:export-xdpi="109.45892"
       inkscape:export-ydpi="109.45892" />
    <path
       style="fill:#babdb6;stroke:#888a85;stroke-width:0.41092533"
       d="m 178.01143,501.83025 c 0,-8.03013 0.0106,-8.47796 0.20005,-8.40273 3.95902,1.5728 9.50712,2.80337 15.23211,3.3785 2.05842,0.20679 11.71638,0.20914 14.23185,0.003 4.88087,-0.39906 8.19153,-0.74555 15.48931,-1.62108 12.93982,-1.55245 17.4351,-1.89454 23.37684,-1.77891 6.01355,0.11702 10.56752,0.89986 14.37796,2.4716 l 0.93988,0.38769 0.0295,7.02182 0.0295,7.02183 -41.95347,0 -41.95346,0 0,-8.4822 z m 36.00834,-7.23244 c -5.67244,-0.37715 -8.8014,-0.77544 -12.9407,-1.64722 -7.83519,-1.65015 -14.74475,-4.37892 -21.66486,-8.55597 l -1.39789,-0.84378 -0.002,-15.96874 -0.002,-15.96873 41.95257,0 41.95257,0 0,19.54185 0,19.54184 -0.37151,-0.0776 c -1.35771,-0.28373 -2.36637,-0.35751 -4.8297,-0.35324 -3.6928,0.007 -6.28187,0.31919 -12.97443,1.56755 -7.7836,1.45186 -12.17474,2.08054 -17.77554,2.54493 -2.11986,0.17577 -10.33215,0.32642 -11.94562,0.21913 z m -6.22316,-8.22298 c 0.79148,-0.81448 1.18361,-0.94288 2.85095,-0.93352 1.35298,0.007 1.58331,0.0417 2.57203,0.38167 0.59727,0.20535 1.31195,0.5072 1.58818,0.67082 0.2762,0.1636 0.52081,0.2783 0.54354,0.25491 0.0756,-0.0778 -1.37404,-1.27872 -2.4082,-1.99506 -1.18012,-0.81747 -2.08446,-1.25984 -3.21005,-1.57028 -0.65183,-0.17979 -1.20289,-0.22024 -2.97212,-0.21817 -2.46917,0.003 -3.04259,0.0956 -7.25882,1.17343 -6.08779,1.55631 -7.10979,1.64862 -8.93258,0.80684 -1.57486,-0.72729 -2.28102,-2.4512 -1.93746,-4.72982 0.52196,-3.46179 2.95073,-7.81269 6.31363,-11.31022 1.81913,-1.89194 3.39378,-2.92981 4.60146,-3.03287 0.69857,-0.0596 0.98376,0.13849 0.98376,0.68333 0,0.29525 -0.0524,0.34928 -0.40492,0.41733 -0.51046,0.0985 -1.0358,0.63176 -1.2092,1.2273 -0.11294,0.3879 -0.1041,0.50543 0.0569,0.75844 0.63119,0.99131 2.243,-0.74218 2.243,-2.41233 0,-0.59979 -0.0452,-0.74445 -0.34135,-1.0915 -0.50924,-0.59685 -1.0967,-0.72847 -2.29867,-0.51503 -1.69736,0.30143 -3.65691,1.31544 -5.5867,2.89098 -1.25404,1.02385 -3.3286,3.26768 -4.26267,4.61053 -0.9709,1.39576 -2.27694,4.07755 -2.65831,5.45851 -0.84179,3.04817 -0.5778,5.55125 0.74222,7.03751 1.52731,1.71967 3.59627,2.06446 7.31811,1.21961 1.0374,-0.23548 2.37485,-0.56418 2.97213,-0.73043 2.03395,-0.56616 3.24449,-0.77867 4.8025,-0.8431 1.32342,-0.0546 1.67918,-0.0288 2.48424,0.18063 1.14778,0.29869 1.79094,0.67336 2.44512,1.42447 0.27449,0.31515 0.51365,0.57839 0.53146,0.58498 0.0178,0.007 0.2121,-0.17296 0.43171,-0.39896 z m 14.42679,-0.32419 c 2.04944,-0.85186 4.15178,-3.05158 5.39953,-5.64964 1.84654,-3.84489 0.59476,-6.16496 -2.35917,-4.37261 -1.63697,0.99324 -2.84658,3.082 -3.28726,5.6764 l -0.066,0.38899 0.65574,-0.58535 c 0.36065,-0.32195 0.98357,-0.78995 1.38428,-1.04001 0.6791,-0.42378 0.74214,-0.49986 0.92901,-1.12139 0.34778,-1.15666 1.17401,-2.38804 1.84025,-2.74257 1.53736,-0.8181 1.5042,1.64041 -0.0585,4.34279 -1.03237,1.7852 -3.08352,3.60769 -4.26565,3.79011 -1.01818,0.15712 -1.86794,-0.54702 -2.11341,-1.75125 -0.27203,-1.3346 0.55968,-4.31785 1.872,-6.71461 2.4827,-4.53436 6.34599,-8.81999 9.29965,-10.31632 0.73882,-0.37428 1.50283,-0.54679 1.8371,-0.4148 0.1468,0.0579 0.007,0.20959 -0.59756,0.64621 -1.71546,1.23971 -2.87382,2.60388 -3.66284,4.31362 -0.54082,1.17187 -0.5995,2.08822 -0.1643,2.56539 0.39377,0.43175 0.78738,0.4787 1.55033,0.18496 1.18591,-0.45662 2.78468,-2.27964 3.53953,-4.03606 0.40221,-0.93592 0.54958,-1.51786 0.62927,-2.48524 l 0.0678,-0.82344 0.55712,-0.0364 c 1.02097,-0.0668 2.55978,0.54475 4.46397,1.77402 0.50773,0.32775 1.17564,0.7494 1.48427,0.93696 l 0.56111,0.34102 0.83354,-0.85206 c 0.45845,-0.46862 0.80623,-0.89751 0.77285,-0.95308 -0.12146,-0.20224 -3.9536,-2.10234 -4.58958,-2.27568 -1.05021,-0.28622 -2.54674,-0.24091 -3.61681,0.1095 l -0.90526,0.29645 -0.35216,-0.2585 c -0.30453,-0.22353 -0.49907,-0.25799 -1.43814,-0.25466 -0.96458,0.003 -1.20242,0.0502 -2.12808,0.41887 -2.18063,0.8684 -4.03617,2.20235 -6.27653,4.5122 -2.81034,2.89753 -4.98994,6.32172 -6.18105,9.71053 -0.41984,1.19448 -0.43431,1.28725 -0.44024,2.82312 -0.006,1.41503 0.0226,1.65339 0.25771,2.18783 0.35683,0.81118 1.11387,1.55211 1.86981,1.83002 0.76735,0.28211 1.76907,0.22075 2.69775,-0.16528 z m 7.19994,-13.39031 c -0.27229,-0.1632 -0.25969,-0.96151 0.0254,-1.60778 0.41014,-0.9298 1.25197,-2.14276 2.08699,-3.00703 0.8445,-0.87411 2.21684,-1.88698 2.39937,-1.7709 0.26263,0.16702 -0.30366,2.32024 -0.90323,3.43445 -0.71354,1.32601 -2.52867,3.08456 -3.17364,3.07474 -0.12915,-0.003 -0.32485,-0.0575 -0.43487,-0.12348 z m 0.34759,13.36285 c 1.50742,-0.72216 3.23322,-2.59003 4.52461,-4.89705 0.2861,-0.51111 0.33803,-0.54676 0.89548,-0.6147 0.32548,-0.0397 0.60569,-0.0578 0.62269,-0.0403 0.017,0.0175 -0.14563,0.5922 -0.36144,1.27708 -0.73186,2.32252 -0.76513,3.49517 -0.11811,4.16101 0.69283,0.71295 1.81885,0.35445 3.16696,-1.00828 l 0.78166,-0.79012 0,0.51781 c 0,0.63413 0.24504,1.2715 0.55436,1.44185 0.67337,0.37085 1.79974,-0.0179 2.83979,-0.98019 0.61885,-0.57257 0.75447,-0.64841 0.64776,-0.36225 -0.10716,0.28741 0.0684,0.99394 0.30831,1.24084 0.87271,0.89805 3.16454,-0.6751 5.29393,-3.63388 1.1793,-1.63864 1.19215,-1.66619 0.77746,-1.66619 -0.25697,0 -0.39597,0.0998 -0.61658,0.44289 -0.94414,1.46813 -2.50393,3.08611 -2.97511,3.08611 -0.46963,0 -0.23894,-0.68705 0.84921,-2.52911 0.91373,-1.54681 3.40914,-6.01205 3.40914,-6.10023 0,-0.0416 -0.46005,-0.0755 -1.02232,-0.0755 -0.93,0 -1.0388,0.0239 -1.2046,0.26468 l -0.18226,0.26468 -0.19572,-0.25092 c -0.27766,-0.35589 -0.62784,-0.5141 -1.13131,-0.51113 -0.60388,0.003 -1.20501,0.31225 -2.20864,1.13408 -1.31303,1.07523 -2.38959,2.4239 -4.26329,5.34087 -1.39159,2.16644 -2.22013,2.91876 -2.68627,2.43909 -0.33949,-0.34934 0.019,-2.07408 0.81009,-3.89665 0.33171,-0.76425 0.41481,-0.85479 1.72764,-1.88213 2.16493,-1.69416 5.99911,-5.69125 6.9648,-7.26075 l 0.21358,-0.34716 -0.32557,0.007 c -0.2658,0.005 -0.45156,0.16971 -1.01146,0.89639 -1.72408,2.23758 -6.12798,6.53486 -6.40495,6.24986 -0.12951,-0.13328 1.93357,-3.74416 3.3473,-5.8585 1.64162,-2.45521 3.71556,-4.88908 5.10342,-5.98916 0.64894,-0.51436 1.20414,-0.72471 1.22477,-0.46402 0.0337,0.4251 -0.0637,0.80013 -0.37035,1.42505 l -0.33446,0.68181 0.31751,-0.0765 c 0.4487,-0.10807 0.5727,-0.25995 0.83196,-1.01907 0.39543,-1.15772 0.27204,-1.78978 -0.37295,-1.91061 -0.99254,-0.18592 -2.71575,0.91063 -4.97502,3.16583 -2.92657,2.9213 -5.23002,6.19299 -7.39155,10.49857 -0.65237,1.29946 -0.66404,1.31383 -1.1753,1.44631 -0.284,0.0736 -0.54285,0.10657 -0.57521,0.0733 -0.0323,-0.0333 0.046,-0.31359 0.17428,-0.62287 0.59331,-1.43132 0.73867,-2.51784 0.43643,-3.26222 -0.20015,-0.49297 -0.47688,-0.65267 -1.1309,-0.65267 -0.65032,0 -1.2736,0.22904 -2.09532,0.76996 -2.50191,1.64694 -5.18539,6.00567 -5.18539,8.42251 0,1.5694 1.01502,2.16247 2.49094,1.4554 z m 0.28304,-1.97241 c -0.48256,-0.63469 0.0372,-2.27477 1.36069,-4.2936 0.30749,-0.46907 0.58963,-0.85286 0.62693,-0.85286 0.0373,0 0.26215,0.22715 0.4996,0.50477 0.23747,0.2776 0.64203,0.60846 0.89902,0.7352 0.257,0.12676 0.46785,0.28983 0.46857,0.3624 3.9e-4,0.0725 -0.2605,0.54466 -0.58049,1.04907 -0.64589,1.01816 -1.71012,2.22519 -2.1846,2.47775 -0.38327,0.20403 -0.941,0.21286 -1.08972,0.0172 z m 12.03454,-0.041 c -0.87319,-0.89856 3.5762,-7.69343 5.03777,-7.69343 0.55829,0 0.51787,0.34511 -0.17921,1.52924 -0.36182,0.61462 -1.02382,1.75539 -1.4711,2.53503 -1.00805,1.75706 -1.94649,3.06949 -2.49817,3.49367 -0.48508,0.37301 -0.63612,0.39601 -0.88929,0.13549 z m -8.32748,-4.43653 c -0.61492,-0.38305 -0.87809,-0.84517 -0.87899,-1.54343 -3.9e-4,-0.54035 0.0374,-0.61826 0.55291,-1.12955 0.65566,-0.65033 1.06352,-0.79435 1.47119,-0.51947 0.26663,0.17977 0.28293,0.24581 0.24101,0.97584 -0.0328,0.57197 -0.14852,1.01291 -0.42929,1.63588 -0.21139,0.46906 -0.41533,0.85256 -0.45318,0.85222 -0.0379,-2.8e-4 -0.26449,-0.1225 -0.50365,-0.27149 z m 18.09608,2.11251 c 0.15275,-0.27721 0.15236,-0.34648 -0.004,-0.63467 -0.13208,-0.24408 -0.27591,-0.33223 -0.58593,-0.35913 -0.49037,-0.0424 -0.78301,0.20555 -0.78048,0.66161 0.002,0.40639 0.11,0.57213 0.45873,0.70565 0.37335,0.14298 0.70061,0.008 0.91126,-0.37346 z m -1.14187,0.0442 c -0.28585,-0.54962 0.29163,-1.18035 0.78805,-0.86071 0.229,0.14744 0.30041,0.69986 0.11945,0.92422 -0.20381,0.25274 -0.76339,0.21357 -0.9075,-0.0635 z m 0.53137,-0.14945 c 0.10067,0.25526 0.20952,0.15956 0.23439,-0.2061 0.0131,-0.19396 -0.0254,-0.35266 -0.0857,-0.35266 -0.0603,0 -0.0968,0.0476 -0.0811,0.10586 0.0157,0.0582 -0.0229,0.10587 -0.0857,0.10587 -0.0628,0 -0.10145,-0.0475 -0.0857,-0.10587 0.0157,-0.0582 -0.0229,-0.10586 -0.0857,-0.10586 -0.0629,0 -0.11353,0.17204 -0.11258,0.38229 0.002,0.30221 0.0271,0.34534 0.12302,0.20588 0.0912,-0.1328 0.13561,-0.14007 0.17924,-0.0295 z m -55.5152,-0.80438 c 1.31369,-0.72054 2.91108,-2.46216 4.1594,-4.53493 0.60541,-1.00526 0.68021,-1.08357 1.15166,-1.20573 0.27731,-0.0719 0.52971,-0.13066 0.56088,-0.13066 0.0311,0 -0.19136,0.54259 -0.49451,1.20574 -0.61255,1.34007 -0.80653,2.03264 -0.80653,2.87979 0,0.72993 0.38612,1.52941 0.91449,1.89345 0.34451,0.23737 0.5119,0.27005 1.20473,0.23519 1.08549,-0.0546 1.98162,-0.52165 3.33533,-1.73829 0.57943,-0.52079 1.07738,-0.94688 1.10656,-0.94688 0.0292,0 0.005,0.1717 -0.0533,0.38154 -0.0585,0.20983 -0.10634,0.66219 -0.10634,1.00523 0,1.71412 1.76768,1.73207 3.53221,0.0358 0.20821,-0.20017 0.39886,-0.36394 0.42366,-0.36394 0.0247,0 0.045,0.21522 0.045,0.47827 0,0.60892 0.13599,0.8653 0.55335,1.04319 0.99903,0.42584 2.92852,-1.04872 5.04363,-3.85446 0.56822,-0.75376 1.03313,-1.41061 1.03313,-1.45969 0,-0.049 -0.1253,-0.0892 -0.27844,-0.0892 -0.20715,0 -0.45187,0.21836 -0.95581,0.85284 -1.52687,1.92238 -2.88117,2.94542 -2.88088,2.17622 5e-5,-0.14557 1.03043,-2.06446 2.28974,-4.2642 l 2.28964,-3.99954 -0.98958,-0.0342 c -0.80426,-0.0278 -1.02992,0.003 -1.20497,0.16639 -0.20391,0.1899 -0.22972,0.18676 -0.4836,-0.0587 -1.1789,-1.13971 -3.47264,0.47549 -6.42685,4.52564 -1.51927,2.0829 -2.88937,3.62598 -3.68742,4.15295 -1.37539,0.90823 -2.3031,0.47265 -2.15424,-1.01148 0.0778,-0.7759 0.96359,-2.7295 1.80638,-3.98405 1.08668,-1.61762 2.59855,-2.99195 3.2914,-2.99195 0.12467,0 0.30432,0.11406 0.3992,0.25345 0.22868,0.33597 0.0515,0.68761 -0.34632,0.68761 -0.59498,0 -1.34736,1.23248 -1.07365,1.75875 0.11852,0.22789 0.29623,0.29253 0.68886,0.25057 0.31462,-0.0336 1.12008,-1.05375 1.31925,-1.67084 0.26773,-0.82943 0.17016,-1.47842 -0.28519,-1.89712 -0.305,-0.28045 -0.44657,-0.32314 -1.06444,-0.32091 -1.17413,0.004 -1.95603,0.46895 -3.84205,2.28332 -1.15156,1.10782 -2.15794,1.82795 -2.55763,1.83016 -0.24351,0.002 -0.24712,0.07 0.0367,-0.69821 0.53895,-1.45924 0.52102,-2.4982 -0.0527,-3.05284 -1.75959,-1.70107 -7.04403,3.0913 -8.11987,7.36375 -0.68172,2.7073 0.5494,4.01598 2.67911,2.84788 z m 0.0575,-1.91796 c -0.34744,-0.35752 -0.36495,-0.74461 -0.0731,-1.61734 0.29578,-0.88468 0.62063,-1.52504 1.35012,-2.66135 l 0.62418,-0.97233 0.48458,0.51306 c 0.26718,0.28291 0.7249,0.60753 1.02033,0.72364 0.29469,0.11581 0.53581,0.26142 0.53581,0.32357 0,0.0621 -0.28566,0.56401 -0.63481,1.11523 -0.96944,1.53045 -1.97505,2.54623 -2.76408,2.79205 -0.1872,0.0583 -0.33202,3.9e-4 -0.54298,-0.21653 z m 13.57867,-0.0307 c -0.0971,-0.26048 0.13317,-1.111 0.53581,-1.9787 0.70346,-1.51599 3.03103,-4.70306 3.91714,-5.36359 0.48469,-0.36132 1.07943,-0.4559 1.17949,-0.18757 0.0653,0.17525 -2.06463,3.96732 -3.24569,5.77838 -0.79972,1.2263 -1.55191,1.94607 -2.03371,1.94607 -0.15549,0 -0.31282,-0.0867 -0.35304,-0.19459 z m -9.86461,-4.57903 c -0.54151,-0.24367 -0.88919,-0.60027 -0.97439,-0.99939 -0.0989,-0.46345 0.28331,-1.29749 0.76949,-1.67909 0.90198,-0.70796 1.5798,-0.44916 1.57131,0.59995 -0.005,0.66072 -0.55297,2.19104 -0.79828,2.23082 -0.0928,0.0151 -0.34852,-0.0534 -0.56813,-0.15229 z m 21.3351,-2.93138 c 0.27028,-0.45289 0.49284,-0.86313 0.49457,-0.91166 0.002,-0.0485 -0.42123,-0.0875 -0.93993,-0.0867 -1.05854,0.002 -0.93244,-0.0947 -1.73718,1.32671 l -0.31903,0.56354 1.00508,-0.0342 1.00508,-0.0342 0.49141,-0.82344 z m 27.43366,-1.36581 c 2.04129,-0.64774 4.19598,-2.30755 5.54264,-4.26964 0.64968,-0.94659 0.70563,-1.13942 0.18612,-0.64151 -1.88611,1.80764 -4.45149,3.10777 -6.40875,3.24798 l -0.8932,0.064 -0.67442,0.89005 c -0.48359,0.63821 -0.63517,0.91819 -0.53571,0.9895 0.22484,0.16117 1.93456,-0.011 2.78332,-0.28036 z"
       id="path4739"
       inkscape:connector-curvature="0"
       inkscape:export-xdpi="109.45892"
       inkscape:export-ydpi="109.45892" />
    <path
       style="fill:#babdb6;stroke:#888a85;stroke-width:0.4703542"
       d="m 165.5895,587.64619 c 0.002,-0.34749 0.26187,-1.7749 0.57601,-3.17203 0.31414,-1.39713 0.63734,-2.92128 0.71821,-3.38698 0.24064,-1.38572 0.5324,-1.47002 2.47844,-0.71614 2.54856,0.98726 5.3967,0.94435 8.94714,-0.13481 1.53978,-0.46802 3.12284,-1.02754 3.51791,-1.2434 l 0.7183,-0.39242 -0.66727,-0.87348 c -2.85954,-3.74326 -3.12565,-8.04223 -0.82566,-13.33857 0.8576,-1.97485 4.53955,-7.53239 5.42509,-8.18865 0.16042,-0.11888 0.29167,-0.36856 0.29167,-0.55485 0,-0.18628 -0.0973,-0.26658 -0.21627,-0.17842 -0.11895,0.0882 -1.16759,0.31941 -2.33031,0.51392 -3.52451,0.5896 -6.71883,2.02579 -10.82162,4.86547 -1.06066,0.73412 -2.00193,1.24667 -2.09172,1.13902 -0.0898,-0.10767 0.2147,-1.91214 0.67664,-4.00995 l 0.8399,-3.8142 1.25183,-0.74196 c 6.02462,-3.5708 14.8939,-5.92823 20.28919,-5.3928 1.14928,0.11405 2.2297,0.0684 2.40093,-0.1014 0.17122,-0.16982 1.51884,-0.94989 2.9947,-1.73349 6.24395,-3.31515 10.43049,-4.4886 16.15914,-4.52924 2.49146,-0.0176 3.98386,0.10666 4.18572,0.34871 0.22999,0.27576 0.0922,1.38573 -0.5162,4.15855 -0.45646,2.08031 -0.9048,3.87216 -0.99631,3.98189 -0.0915,0.10974 -0.6663,-0.0403 -1.27728,-0.33348 -2.6057,-1.25016 -8.30859,-1.00628 -12.02399,0.5142 -0.94481,0.38665 -1.77211,0.76019 -1.83847,0.83008 -0.0663,0.0699 0.19919,0.54462 0.5901,1.05496 2.11524,2.76151 2.72261,5.01938 2.24146,8.33242 -0.5694,3.92072 -2.19149,7.41526 -5.2256,11.2577 -1.01497,1.28536 -1.84947,2.44754 -1.85445,2.5826 -0.01,0.26125 0.37631,0.19552 4.37044,-0.74442 2.60068,-0.61203 5.26002,-1.94487 8.89654,-4.45889 1.10314,-0.76263 2.05685,-1.32527 2.11936,-1.25031 0.0625,0.0749 -0.25945,1.80727 -0.71549,3.84957 -0.45602,2.0423 -0.83141,3.79666 -0.83419,3.89857 -0.005,0.19256 -3.15092,2.02812 -6.06457,3.53879 -4.62814,2.39957 -9.97545,3.46708 -14.53413,2.90155 -2.49073,-0.30899 -2.71391,-0.28294 -3.94586,0.46026 -2.14585,1.29461 -7.31942,3.49563 -10.48582,4.46113 -2.43786,0.74333 -3.80813,0.93351 -7.69711,1.06831 -4.47925,0.15526 -4.73098,0.13034 -4.7264,-0.46781 z m 29.10561,-20.95366 c 0.65119,-1.59414 0.83017,-2.49212 0.83034,-4.16587 2.2e-4,-2.05573 -0.56001,-4.13223 -1.11487,-4.13223 -0.47593,0 -2.30736,2.87622 -3.17143,4.98071 -0.76684,1.86767 -0.85057,2.36478 -0.7517,4.46287 0.0816,1.73075 0.25818,2.55575 0.66158,3.09025 l 0.55033,0.72917 1.08281,-1.46636 c 0.59554,-0.8065 1.45636,-2.38084 1.91294,-3.49854 z m 29.21804,0.96784 c -2.07189,-0.50983 -4.1717,-3.02221 -4.91357,-5.87897 -0.66881,-2.57545 0.0843,-5.87175 1.8159,-7.94811 1.4762,-1.77009 2.72809,-2.30069 5.09067,-2.15764 1.74835,0.10587 2.25497,0.28318 3.28537,1.1499 0.67005,0.5636 1.24752,1.3232 1.28327,1.68799 0.0364,0.37083 -0.419,1.32029 -1.0328,2.15351 l -1.0978,1.49025 -1.07941,-1.06687 c -1.48813,-1.47088 -2.66865,-1.44553 -3.94479,0.0847 -1.53177,1.83673 -1.2258,4.39596 0.68559,5.73453 0.811,0.56795 1.08642,0.60413 2.0268,0.26631 0.93628,-0.33638 1.45823,-0.99313 3.73773,-4.7031 1.45721,-2.37169 2.9368,-4.8075 3.28797,-5.41292 0.60624,-1.04517 0.72873,-1.10077 2.42505,-1.10077 1.36853,0 1.82667,0.12536 1.958,0.53575 0.22357,0.69861 0.22357,13.4713 0,14.16992 -0.12701,0.39689 -0.56627,0.53573 -1.69478,0.53573 -1.43656,0 -1.52331,-0.0482 -1.52331,-0.84674 0,-0.82859 -0.0458,-0.84674 -2.13732,-0.84674 -1.81862,0 -2.27139,0.1213 -3.03648,0.81349 -1.38594,1.25388 -3.3758,1.77296 -5.13609,1.3398 z m 10.13431,-7.48779 c -0.2547,-1.27301 -0.24897,-1.27237 -0.94269,-0.10417 l -0.61498,1.0356 0.87201,0 c 0.80814,0 0.85835,-0.0683 0.68566,-0.93143 z m 6.37969,6.79086 c -0.005,-0.149 -0.0373,-2.63333 -0.0706,-5.52074 l -0.0606,-5.24981 -1.12985,-0.16935 -1.12985,-0.16935 0,-1.86285 0,-1.86282 3.88386,-0.0942 3.88386,-0.0942 0,2.04175 0,2.04174 -0.98162,0 -0.98163,0 -0.0776,5.50384 -0.0776,5.50384 -1.62417,0.10158 c -0.89329,0.0559 -1.62868,-0.0204 -1.63421,-0.16936 z m 6.06833,-0.19462 c -0.076,-0.23746 -0.10378,-3.69735 -0.0617,-7.68864 l 0.0764,-7.2569 1.55355,1e-5 1.55354,3e-5 0.0759,7.68862 0.0759,7.68862 -1.56772,0 c -1.00981,0 -1.61687,-0.15363 -1.70587,-0.43174 z m 4.23694,0 c -0.076,-0.23746 -0.10378,-3.70434 -0.0617,-7.70418 l 0.0764,-7.27243 1.27108,0.0596 c 0.69909,0.0328 1.42617,0.0704 1.61572,0.0834 0.24775,0.0171 0.36687,1.23782 0.42369,4.3422 l 0.079,4.3184 1.55355,-2.99821 c 0.85445,-1.64901 1.94121,-3.6304 2.41502,-4.40307 l 0.86148,-1.40487 4.36409,0 4.36407,0 0.0841,2.11686 0.0841,2.11686 -2.29389,0 c -2.0323,0 -2.28312,0.0676 -2.19949,0.59272 0.0785,0.49303 0.46208,0.60936 2.28041,0.69164 l 2.18601,0.0989 0,2.01793 c 0,1.10987 -0.0953,2.0313 -0.21184,2.04762 -0.11651,0.0164 -1.1016,0.0544 -2.18908,0.0847 -1.54822,0.0431 -1.97751,0.16525 -1.9785,0.56306 -7.7e-4,0.39162 0.48456,0.54687 2.11848,0.6774 l 2.11972,0.16935 0.0841,2.11686 0.0841,2.11686 -3.81005,0 c -2.09552,0 -3.87046,-0.1172 -3.9443,-0.26044 -0.0738,-0.14326 -0.17665,-2.28452 -0.22851,-4.75838 -0.1102,-5.25743 0.12689,-5.32583 -3.06057,0.88293 l -2.11803,4.12564 -1.91548,0.005 c -1.29495,0.003 -1.96025,-0.13474 -2.05366,-0.42661 z m 18.01631,-7.21797 0.0759,-7.68237 1.55354,-0.003 1.55355,-0.003 2.04784,3.64184 2.04786,3.64183 0,-3.40402 c 0,-2.14761 0.11679,-3.49059 0.31643,-3.63853 0.25827,-0.1914 1.96639,-0.27615 3.36099,-0.16676 0.18875,0.0148 0.26169,2.61718 0.21184,7.55861 l -0.076,7.53588 -1.69478,0 -1.69477,0 -1.91458,-3.38698 c -1.053,-1.86285 -2.00631,-3.42482 -2.11846,-3.47106 -0.11214,-0.0462 -0.2039,1.47791 -0.2039,3.38699 l 0,3.47105 -1.77073,0.10099 -1.77073,0.10101 0.0759,-7.68237 z m -77.03629,-14.51436 c -2.96462,-1.30258 -4.12073,-6.11263 -2.41804,-10.06039 0.83379,-1.93322 1.31399,-2.56672 2.82642,-3.72876 1.01427,-0.7793 1.57375,-0.96485 2.90926,-0.96485 1.83199,0 2.81037,0.47833 3.9217,1.91727 1.47119,1.90495 1.76631,5.59392 0.66927,8.36602 -0.57578,1.45495 -2.13706,3.42252 -3.27634,4.12895 -1.23986,0.76881 -3.31232,0.92171 -4.63227,0.34176 z"
       id="path4803"
       inkscape:connector-curvature="0"
       inkscape:export-xdpi="109.45892"
       inkscape:export-ydpi="109.45892" />
    <path
       style="fill:#babdb6"
       d="m 348.57855,265.44076 0,-31.37488 41.5679,0 41.56791,0 0,31.37488 0,31.37488 -41.56791,0 -41.5679,0 0,-31.37488 z m 70.13309,5.02063 c 2.76487,-1.43104 3.66088,-4.57503 1.89619,-6.65343 -3.56221,-4.19543 -12.12259,-2.42629 -12.12259,2.50533 0,4.22587 5.649,6.51727 10.2264,4.1481 z m -4.72477,-1.51157 c -1.32116,-0.57537 -1.83388,-1.29241 -1.83388,-2.56469 0,-1.62002 1.12146,-2.66945 2.8527,-2.66945 2.49147,0 3.62203,2.19366 2.23094,4.32877 -0.34196,0.52486 -0.78543,0.95429 -0.98548,0.95429 -0.20006,0 -0.60798,0.0689 -0.90648,0.15303 -0.29851,0.0842 -0.90951,-0.006 -1.3578,-0.20195 z m -51.97422,1.68744 c 0.23204,-0.34409 0.42187,-1.86729 0.42187,-3.38486 0,-2.4282 0.0978,-2.80077 0.81506,-3.10545 0.57909,-0.24598 1.05101,-0.24598 1.63011,0 0.72502,0.30798 0.81506,0.67725 0.81506,3.34294 0,3.16821 0.29902,3.77302 1.86548,3.77302 1.43792,0 1.7629,-0.67121 1.8878,-3.89894 l 0.11824,-3.05529 1.42635,0 1.42635,0 0.20838,3.0728 c 0.11462,1.69004 0.35467,3.25474 0.53346,3.47711 0.47022,0.58484 2.58575,0.50608 2.88231,-0.10731 0.13604,-0.2814 0.24736,-1.96983 0.24736,-3.75205 l 0,-3.24041 -1.3856,-1.09975 c -1.15673,-0.91809 -1.68235,-1.09973 -3.18233,-1.09973 -0.98821,0 -2.14788,0.20378 -2.57705,0.45286 -0.66886,0.38817 -0.89665,0.38817 -1.5949,0 -0.85568,-0.47569 -4.35161,-0.62626 -4.88205,-0.21027 -0.17014,0.13341 -1.07179,0.24258 -2.00369,0.24258 l -1.69434,0 -0.11466,4.18777 c -0.0631,2.30329 -0.0229,4.37742 0.0891,4.6092 0.32343,0.66897 2.58021,0.51874 3.06769,-0.20422 z m 26.16851,0.0713 c 0.4376,-0.41849 0.16794,-6.98203 -0.32908,-8.01005 -0.55922,-1.15662 -6.15346,-1.72806 -8.24013,-0.84171 -1.13839,0.48356 -1.72088,1.61439 -1.22133,2.37104 0.51862,0.78553 1.4422,0.70731 2.86453,-0.24259 1.3182,-0.88035 2.01071,-0.98436 3.19752,-0.48024 1.33193,0.56577 0.45251,1.24749 -2.12934,1.65064 -3.23575,0.50526 -4.81485,1.54018 -4.7973,3.1441 0.0254,2.31775 1.4207,2.94465 6.42054,2.88464 2.59329,-0.0311 3.92622,-0.18091 4.23459,-0.47583 z M 381.2827,269.108 c -0.28017,-0.0897 -0.50939,-0.4243 -0.50939,-0.74349 0,-0.81206 0.73429,-1.19604 2.80633,-1.46749 l 1.78751,-0.23417 -0.28159,0.92537 c -0.44147,1.45077 -2.03271,2.0867 -3.80286,1.51978 z m 11.46909,1.6433 c 0.13605,-0.2814 0.24737,-0.84106 0.24737,-1.24368 0,-0.40262 0.36968,-0.99758 0.82153,-1.32214 0.9204,-0.66111 0.82134,-0.71874 2.94086,1.71102 1.13865,1.30532 2.66437,1.70116 3.41529,0.88608 0.60957,-0.66163 0.26778,-1.30034 -1.9523,-3.64827 l -1.30418,-1.37928 1.54197,-1.25334 c 1.69139,-1.37478 1.82627,-2.3922 0.33947,-2.56056 -0.6542,-0.0741 -1.60671,0.42158 -3.35795,1.74736 l -2.44469,1.85077 0,-2.61375 c 0,-1.94487 -0.16389,-2.74382 -0.64041,-3.12203 -0.88543,-0.70275 -1.646,-0.63582 -2.39295,0.21059 -0.5026,0.56953 -0.6344,1.68275 -0.6344,5.35822 0,2.57948 0.18731,4.91715 0.42187,5.265 0.52284,0.77541 2.63983,0.85589 2.99852,0.11401 z m 11.53223,0.10732 c 0.18133,-0.22237 0.42139,-1.71372 0.53346,-3.31412 l 0.20376,-2.90978 1.63012,-0.66815 c 2.02368,-0.82946 2.42469,-1.95374 0.81146,-2.2751 -0.59144,-0.11782 -1.51373,-0.0557 -2.04955,0.13809 -0.61334,0.22181 -1.06399,0.23702 -1.21658,0.0411 -0.42668,-0.54795 -2.18567,-0.33729 -2.62511,0.31439 -0.53462,0.79286 -0.55342,7.1439 -0.0244,8.24824 0.43231,0.90248 2.13233,1.1667 2.73685,0.42537 z"
       id="path4948"
       inkscape:connector-curvature="0"
       inkscape:export-xdpi="109"
       inkscape:export-ydpi="109" />
  </g>
</svg>
